<svg xmlns="http://www.w3.org/2000/svg" xmlns:xlink="http://www.w3.org/1999/xlink" viewBox="0 0 1017.2 320.6" enable-background="new 0 0 1017.2 320.6"><g><g fill="none" stroke="#DCDCDC" stroke-miterlimit="10"><path d="M513.5 162.7h163.3M725.2 29.2h31.1"/></g><linearGradient id="a" gradientUnits="userSpaceOnUse" x1="877.889" y1="132.759" x2="877.889" y2="186.385"><stop offset="0" stop-color="#4393B8"/><stop offset="1" stop-color="#346AA9"/></linearGradient><path fill="url(#a)" d="M877.9 186.4c-2.9 0-5.7-.5-8.3-1.3-8.1-2.6-14.6-9.1-17.2-17.2-.9-2.6-1.3-5.4-1.3-8.3 0-11.9 7.8-22 18.5-25.5 2.6-.9 5.4-1.3 8.3-1.3 14.8 0 26.8 12 26.8 26.8s-12 26.8-26.8 26.8z"/><path fill="#6CB8DD" d="M836 261.8c-2.3-1.7-4.3-3.7-5.9-5.9-6.6-9.1-7-21.9 0-31.5 7-9.6 19.2-13.2 30-9.8 2.6.8 5.1 2.1 7.5 3.8 12 8.7 14.6 25.5 5.9 37.5-8.8 12-25.5 14.6-37.5 5.9z"/><linearGradient id="b" gradientUnits="userSpaceOnUse" x1="783.229" y1="263.148" x2="783.229" y2="316.788"><stop offset="0" stop-color="#4393B8"/><stop offset="1" stop-color="#346AA9"/></linearGradient><path fill="url(#b)" d="M761.5 305.7c-1.6-2.2-2.9-4.7-3.8-7.5-.9-2.7-1.3-5.5-1.3-8.3 0-5.7 1.8-11.2 5.1-15.8 1.6-2.2 3.6-4.2 5.8-5.9 2.2-1.6 4.8-3 7.6-3.9 11.3-3.7 23.3.6 30 9.7 1.6 2.2 2.9 4.7 3.8 7.5 4.6 14.1-3.1 29.2-17.2 33.8-11.3 3.8-23.3-.4-30-9.6z"/><path fill="none" stroke="#DCDCDC" stroke-miterlimit="10" d="M756.4 290h-31.1"/><path fill="#4393B8" d="M673 281.7c.9-2.7 2.2-5.3 3.8-7.5 1.7-2.3 3.7-4.3 5.9-5.9 6.7-4.9 15.6-6.6 24.1-3.8 11.3 3.7 18.5 14.2 18.5 25.5 0 2.7-.4 5.5-1.3 8.3-4.6 14.1-19.7 21.8-33.8 17.2-14.1-4.6-21.8-19.7-17.2-33.8z"/><path fill="#6CB8DD" d="M608.3 224.5c1.6-2.2 3.6-4.2 5.9-5.9 2.3-1.7 4.9-3 7.5-3.8 7.5-2.4 15.7-1.4 22.4 2.7 2.9 1.8 5.5 4.1 7.6 7.1 1.7 2.3 3 4.9 3.8 7.5 2.6 8.1 1.2 17.1-3.8 24-1.6 2.2-3.6 4.2-5.9 5.9-12 8.7-28.7 6.1-37.5-5.9-7-9.7-6.7-22.5 0-31.6z"/><path fill="none" stroke="#DCDCDC" stroke-miterlimit="10" d="M651.7 256l25.1 18.2"/><path fill="#6CB8DD" d="M645.6 57.4c2.3 1.7 4.3 3.7 5.9 5.9 6.7 9.1 7 21.9 0 31.5-2.3 3.1-5.1 5.6-8.2 7.4-6.5 3.8-14.5 4.7-21.7 2.3-2.6-.8-5.1-2.1-7.5-3.8-2.3-1.7-4.3-3.7-5.9-5.9-6.6-9.1-7-21.9 0-31.5 8.7-11.9 25.5-14.6 37.4-5.9z"/><path fill="#4393B8" d="M723.9 21c4.6 14.1-3.1 29.2-17.2 33.8-11.3 3.7-23.3-.6-30-9.7-1.6-2.2-2.9-4.7-3.8-7.5-4.6-14.1 3.1-29.2 17.2-33.8 14.1-4.6 29.2 3.1 33.8 17.2z"/><path fill="none" stroke="#DCDCDC" stroke-miterlimit="10" d="M676.7 45.1l-25.1 18.2"/><linearGradient id="c" gradientUnits="userSpaceOnUse" x1="783.105" y1="2.417" x2="783.105" y2="56.056"><stop offset="0" stop-color="#4393B8"/><stop offset="1" stop-color="#346AA9"/></linearGradient><path fill="url(#c)" d="M808.6 37.5c-.9 2.7-2.2 5.3-3.8 7.5-6.6 9.2-18.6 13.4-30 9.7-2.6-.8-5-2-7.1-3.5-2.5-1.7-4.6-3.8-6.3-6.2-4.9-6.7-6.6-15.6-3.8-24.1 4.6-14.1 19.7-21.8 33.8-17.2s21.8 19.7 17.2 33.8z"/><path fill="#4393B8" d="M877.2 70.7c3.5 10.8-.1 23-9.7 30-2.3 1.7-4.9 3-7.5 3.8-10.8 3.5-23-.1-30-9.7-1.7-2.3-3-4.9-3.8-7.5-2.6-8.1-1.2-17.1 3.8-24 1.6-2.2 3.6-4.2 5.9-5.9 12-8.7 28.7-6.1 37.5 5.9 1.7 2.3 2.9 4.8 3.8 7.4z"/><linearGradient id="d" gradientUnits="userSpaceOnUse" x1="213.408" y1="102.895" x2="213.408" y2="222.492"><stop offset="0" stop-color="#DEDEDE"/><stop offset="1" stop-color="#BFBFBF"/></linearGradient><path fill="url(#d)" d="M273.2 162.7v.4c-.2 32.3-26.1 58.5-58.3 59.3h-2.5c-32.6-.5-58.9-27.1-58.9-59.8 0-33 26.8-59.8 59.8-59.8 33.1.1 59.9 26.9 59.9 59.9z"/><path opacity=".2" d="M273.2 163.1c-.2 32.3-26.1 58.5-58.3 59.3h-2.5c-1.3 0-2.6-.1-3.9-.2l-21.7-19 11.3-26.1 15.2.6 12-60 8.7 5.7 39.2 39.7z"/><path fill="#F7D0B9" d="M210.5 164.4h9.5v8h-9.5z"/><path fill="#D6AB96" d="M220 167.7s-2.2 1.3-4.8 1.3-4.8-1.3-4.8-1.3v-3.3h9.5v3.3z"/><path fill="#F7D0B9" d="M235.9 145.1c0 11.9-12 21.5-20.2 21.5s-20.2-9.6-20.2-21.5 9.1-21.5 20.2-21.5 20.2 9.6 20.2 21.5z"/><path fill="#353333" d="M227.8 121.2s-1.3-3.8-5.4-5-15.4-2.2-21.6 4.5c-6.2 6.7-9.5 12.4-8.7 18.9s3.5 12.7 4.3 13.4.4-1 .4-1-.3-7.2.1-9.4 1.8-7.6 5.9-8c4.1-.4 9.8.6 11.5.1 1.7-.5 6-2.8 6.4-3.8l.4-1.1s1.8 2.2 3.8 3.7 6.7 4.6 7.9 5.6c1.2 1 1.4 1.4 1.7 4 .3 2.6 0 9.3 0 9.3s.3 1.2.7.7c.4-.4 3.5-6.9 3.7-11.2.2-4.3.3-10.1-1.7-13.7-1.8-3.5-4.2-7.1-9.4-7zM221.8 129.4v.7c0 .4-.1 1-.2 1.7-.3 1.4-.8 3.3-1.8 4.9-.2.4-.5.8-.7 1.2-.2.4-.6.7-.8 1.1-.3.4-.6.6-.9.9-.3.3-.6.5-.8.8-.3.2-.5.4-.7.6-.2.2-.4.3-.6.4-.3.2-.5.4-.5.4s.2-.2.5-.4l.5-.5c.2-.2.4-.4.6-.7.2-.3.5-.5.7-.8.2-.3.5-.6.7-1 .2-.4.5-.7.6-1.1.2-.4.4-.8.5-1.2.7-1.6.9-3.4 1-4.7v-1.6c0-.4-.1-.5-.1-.6l2-.1zM222.8 129.8s.6.5 1 1.5c.4.9.7 2.4.5 3.8-.1.7-.3 1.4-.6 2-.1.3-.3.6-.5.8-.2.3-.4.5-.5.7-.3.4-.7.6-1 .8-.3.2-.4.2-.4.2s0-.2.1-.5c0-.1.1-.3.1-.5.1-.2.1-.4.2-.6.1-.2.1-.5.2-.7.1-.3.1-.5.2-.8.1-.5.2-1.1.3-1.7.1-.6.1-1.2.2-1.7.1-.6.1-1.1.1-1.6.1-1 .1-1.7.1-1.7zM202 144s.4-.5 1.2-1c.4-.3.9-.5 1.5-.7l.9-.3c.3-.1.6-.1 1-.1h1c.3 0 .6.1.9.2.3 0 .6.2.8.3.3.1.5.2.7.3.4.2.7.5.9.7l.3.3s-.2 0-.4-.1c-.1 0-.3-.1-.5-.2s-.4-.1-.6-.2c-.2-.1-.4-.1-.7-.2-.2 0-.5-.1-.8-.1-.5-.1-1.1-.1-1.7 0-.6 0-1.1.1-1.7.2-.5.1-1 .3-1.5.4-.7.3-1.3.5-1.3.5zM204.7 147.3s.2-.5.6-1c.5-.5 1.3-.9 2.2-1 .4 0 .9 0 1.3.1s.8.3 1 .5c.3.2.4.4.6.6.1.2.2.3.2.3s-.1 0-.3.1c-.2 0-.4.1-.7.1-.3 0-.6.1-.9.1-.3 0-.6.1-.9.1-.6 0-1.3.1-1.9 0-.7.2-1.2.1-1.2.1zM228.2 144s-.6-.2-1.4-.5c-.4-.1-.9-.3-1.5-.4-.5-.1-1.1-.2-1.7-.2-.6-.1-1.1 0-1.7 0-.3 0-.5.1-.8.1-.2 0-.5.1-.7.2-.2.1-.4.1-.6.2-.2.1-.3.1-.5.2-.3.1-.4.1-.4.1l.3-.3c.2-.2.5-.5.9-.7.2-.1.4-.3.7-.3.3-.1.5-.2.8-.3.3-.1.6-.2.9-.2h1c.3 0 .6.1 1 .1l.9.3c.6.2 1.1.5 1.5.7.9.5 1.3 1 1.3 1zM225.5 147.3s-.5.1-1.1.1h-1.9c-.3 0-.6-.1-.9-.1-.3 0-.6-.1-.9-.1-.3 0-.6-.1-.7-.1-.2 0-.3-.1-.3-.1s0-.1.2-.3c.1-.2.3-.4.6-.6.3-.2.6-.4 1-.5.4-.1.9-.2 1.3-.1.9.1 1.7.5 2.2 1 .4.3.5.8.5.8z"/><path fill="#FEFBFC" d="M220.4 157.2c0 2.1-2.4 3.7-5.4 3.7-3 0-5.4-1.7-5.4-3.7h10.8z"/><path fill="#F7D0B9" d="M236.3 175.9c-1.3-.5-17.1-6.3-17.1-6.3h-8s-15.8 5.8-17.1 6.3-7.3 3.7-7.3 9.8v17.5h9.8v-12.1h1.6v12.2l16.9-.2 16.9.2v-12.2h1.6v12.1h9.8v-17.5c.2-6-5.8-9.2-7.1-9.8z"/><defs><path id="e" d="M236.3 175.9c-.7-.3-5.6-2.1-10-3.7-3.1 2.4-6.8 3.7-10.7 3.7-4 0-7.8-1.4-10.9-3.9-4.5 1.7-9.8 3.6-10.5 3.9-1.3.5-7.3 3.7-7.3 9.8v17.5h9.8v-12.1h1.6v12.2h33.9v-12.2h1.6v12.1h9.8v-17.5c0-6-6-9.2-7.3-9.8z"/></defs><use xlink:href="#e" overflow="visible" fill="#EA5757"/><clipPath id="f"><use xlink:href="#e" overflow="visible"/></clipPath><path opacity=".2" clip-path="url(#f)" fill="#fff" d="M170.1 192.2H263v6h-92.9zM170.1 179.8H263v6h-92.9zM170.1 166.8H263v6h-92.9z"/><path fill="none" stroke="#ccc" stroke-miterlimit="10" d="M273.2 162.7h188.9M464.6 175"/><linearGradient id="g" gradientUnits="userSpaceOnUse" x1="438.363" y1="87.58" x2="438.363" y2="237.81"><stop offset="0" stop-color="#6E6E6E"/><stop offset="1" stop-color="#424242"/></linearGradient><path fill="url(#g)" d="M513.5 162.7c0 36.2-25.7 66.5-59.8 73.6-3 .6-6.1 1.1-9.3 1.3-2 .2-4 .2-6 .2-41.5 0-75.1-33.6-75.1-75.1 0-2.7.1-5.4.4-8 4-37.7 35.9-67.1 74.7-67.1 2 0 4 .1 6 .2 3.2.2 6.3.7 9.3 1.3 34.1 7.1 59.8 37.4 59.8 73.6z"/><circle fill="#6C6C6C" cx="339.8" cy="162.7" r="7.8"/><circle fill="#6C6C6C" cx="286.8" cy="162.7" r="2.9"/><circle fill="#6C6C6C" cx="651.6" cy="162.7" r="2.9"/><text transform="translate(73.692 153.905)"><tspan x="0" y="0" fill="#231F20" font-family="'OpenSans-Light'" font-size="14">Alice</tspan><tspan x="-24.8" y="20" fill="#231F20" font-family="'OpenSans-Light'" font-size="14">from Mexico</tspan></text><path opacity=".2" fill="#fff" d="M453.8 89.2c12.8 2.7 24.4 8.6 33.9 16.8 8.2 7.1 14.8 16 19.3 26 4.2 9.4 6.5 19.7 6.5 30.7 0 10.3-2.1 20.2-5.9 29.2-1.5 3.6-3.3 7.1-5.4 10.4-2.6 4.1-5.5 8-8.9 11.6-8.7 9.3-19.7 16.4-32.1 20.4-2.5.8-5 1.4-7.5 2-3 .6-6.1 1.1-9.3 1.3-2 .2-4 .2-6 .2V87.6c2 0 4 .1 6 .2 3.1.3 6.2.7 9.4 1.4-.1 0-.1 0 0 0z"/><path fill="#fff" d="M380.6 145.3c.7-.1 1.5-.1 2.2-.1 3 0 6-.1 8.9.1.3.7.2 1.5.2 2.3 0 4.7.1 9.4-.1 14.2 0 1.7-.1 3.5.1 5.2.3 2.6 2.1 5 4.5 6.1 1.9.9 4.2 1 6.2.3.8-.3 1.5-.8 2.4-1.1.1 3.4 0 6.8 0 10.3 0 .7.1 1.5-.1 2.2-.6.6-1.6.5-2.4.7-2.5.3-5 .2-7.5-.4-4.4-1.1-8.5-3.8-11.1-7.5-2.5-3.4-3.9-7.6-3.8-11.8v-15.1c-.1-1.5-.1-3-.1-4.5.1-.4.2-.8.6-.9z"/><g fill="#fff"><path d="M395.4 146.7c3.4-.8 6.9-.6 10.2.3 2.6.9 5.1 2.1 7.1 4 .2.1.4.3.6.5v.1c.5.4.9.9 1.3 1.3l.6.9h.2v.2c.4.4.7.9 1 1.4.2.3.4.6.6 1v.3l.3.1v.3c3.3 6.1 2.8 14.1-1.1 19.8-.1.2-.3.4-.4.5-.2.3-.5.7-.7.9-.2.2-.3.4-.5.6-.6.6-1.1 1.2-1.8 1.7v.2l-.3-.2v.3c-.6.5-1.2.9-1.9 1.4v.1c-.2.1-.5.2-.7.3v.1c-.7.3-1.4.7-2.1 1-.1-6 0-12.1-.1-18.1-.1-.9-.2-1.8-.5-2.6-.3-.6-.5-1.1-.9-1.6 0 0-.1-.1-.1-.2-.3-.3-.6-.6-.8-.9-.4-.3-.8-.7-1.2-1-2.2-1.6-5.1-1.9-7.5-.9-.5.3-1.1.6-1.7.9h-.5v-11.5c.3-.6.4-1.1.9-1.2zM497.8 169.9c.3-1.8 2.6-2.9 4.2-1.8.2.2.4.3.6.5 1.2 1.2 1 3.4-.4 4.4-1.3.8-3.1.6-3.9-.6h-.1c-.4-.7-.5-1.5-.5-2.4l.1-.1z"/></g><path fill="#fff" d="M465.6 155.1c1.5-1.8 3.9-2.4 6.1-2.4 2.2.1 4.5.6 6.3 2 .5.3 0 .9-.2 1.3-.6.7-.9 1.6-1.6 2.1-1.6-.8-3.3-1.7-5.2-1.5-.9 0-1.8.5-2.1 1.4-.2.7-.1 1.5.5 1.9.9.7 2.1.8 3.2 1 1.8.2 3.7.7 5.1 2 1.5 1.6 1.8 4.1 1.1 6.1-.7 2.1-2.7 3.5-4.8 3.9-3.6.7-7.6 0-10.4-2.4v-.7c.7-.8 1.5-1.7 2.2-2.5h.5c1.4 1.1 3.1 1.9 4.8 2.1 1 .1 2-.1 2.8-.7.9-.7 1-2.5-.1-3.1-1.5-.8-3.3-.6-5-1.1-2-.5-3.9-1.9-4.3-3.9-.3-1.8-.1-4 1.1-5.5zM487 152.9c2.6-.4 5.5.2 7.3 2.1 1.7 1.8 2 4.4 2 6.7 0 2.8.3 5.8-1.2 8.3-1.1 2-3.4 3.2-5.7 3.3-2 .2-4.2-.1-5.9-1.4-1.7-1.2-2.5-3.2-2.8-5.2-.2-2.4-.2-4.9 0-7.3.2-1.6.8-3.2 1.9-4.4 1.2-1.2 2.8-1.9 4.4-2.1zm.4 3.9c-1.3.3-2.1 1.7-2.2 3-.1 1.9-.1 3.8-.1 5.7 0 1.4.4 2.9 1.7 3.6 1.5.7 3.6.4 4.4-1.1.8-1.5.6-3.2.6-4.9 0-1.7.2-3.5-.6-5-.7-1.3-2.4-1.7-3.8-1.3zM442 153.2c1.4-.2 2.9-.2 4.3 0V173c-1.3.2-2.6.1-3.9.1-.4 0-.5-.4-.5-.7.1-6.4.1-12.8.1-19.2zM425.5 153.2c2.8-.1 5.7 0 8.5 0 1.8 0 3.8.6 4.9 2.1 1.6 2.3 1.2 5.9-1.2 7.5 1.6.9 2.6 2.7 2.4 4.5.1 1.6-.4 3.4-1.7 4.4-1.5 1.2-3.5 1.5-5.3 1.5h-7.6c-.1-5.3 0-10.5-.1-15.8 0-1.5 0-2.9.1-4.2zm4.3 3.5c0 1.4-.1 2.9 0 4.3.1.4.6.2.9.3 1.2 0 2.5.2 3.7-.3 1.1-.5 1.3-1.9 1-2.9-.3-.8-1.2-1.3-2-1.3-1.3-.2-2.4-.1-3.6-.1zm0 8v4.7c1.2.1 2.4.1 3.5 0 .8 0 1.6-.2 2.1-.9.6-.9.6-2.2-.1-3.1-.5-.6-1.2-.8-2-.8-1.2 0-2.4 0-3.5.1zM448.2 157c-.3-1.3-.2-2.6-.1-3.9h14.2c.3 0 .7-.1 1 .2.1 1.2.1 2.4 0 3.6H458c-.1 5.2.1 10.5-.1 15.7-.1.1-.2.2-.3.2-1.3.1-2.7 0-4 0-.2-5.3.1-10.7-.1-16-1.8.2-3.6.2-5.3.2z"/><text transform="translate(616.093 84.575)" fill="#fff" font-family="'OpenSans-Light'" font-size="14">USD</text><text transform="translate(772.217 34.031)" fill="#fff" font-family="'OpenSans-Light'" font-size="14">XRP</text><text transform="translate(617.468 245.737)" fill="#fff" font-family="'OpenSans-Light'" font-size="14">CNY</text><text transform="translate(688.873 296.6)" fill="#fff" font-family="'OpenSans-Light'" font-size="14">JPY</text><text transform="translate(768.633 296.6)" fill="#fff" font-family="'OpenSans-Light'" font-size="14">KRW</text><text transform="translate(838.075 245.738)" fill="#fff" font-family="'OpenSans-Light'" font-size="14">XAU</text><text transform="translate(864.86 165.389)" fill="#fff" font-family="'OpenSans-Light'" font-size="14">XAG</text><text transform="translate(839.337 84.575)" fill="#fff" font-family="'OpenSans-Light'" font-size="14">BTC</text><text transform="translate(423.509 210.426)" fill="#fff" font-family="'OpenSans-Light'" font-size="14">MXN</text><text transform="translate(685.336 35.355)" fill="#fff" font-family="'OpenSans-Light'" font-size="14">EUR</text><circle fill="#6C6C6C" cx="569.5" cy="162.7" r="4.7"/><circle fill="#6CB8DD" cx="664.2" cy="265.1" r="3.8"/><circle fill="#6CB8DD" cx="739.8" cy="29.3" r="3.8"/><circle fill="#6CB8DD" cx="664.2" cy="54.2" r="3.8"/><path fill="none" stroke="#DCDCDC" stroke-miterlimit="10" d="M748.5 79.1h76.4"/><circle fill="#6CB8DD" cx="812.5" cy="79" r="3.8"/><path fill="none" stroke="#DCDCDC" stroke-miterlimit="10" d="M824.9 240.1h-78.1M852.4 167.9l-90.1 72.3"/><circle fill="#6CB8DD" cx="813.5" cy="198.5" r="3.8"/><circle fill="#6CB8DD" cx="762.3" cy="240.2" r="3"/><g fill="#424242"><path d="M715 172.5v-19.2h5.6v1.7c.4-.5.9-.9 1.4-1.2 1-.6 2.2-.9 3.5-.9.3 0 .6 0 .9.1.3.1.6.1.9.2l.4.1v5.5l-.7-.2c-.4-.1-.7-.2-1.1-.2-.3-.1-.7-.1-1-.1-1 0-1.7.2-2.3.5-.6.3-1 .7-1.3 1.2-.3.4-.5.9-.6 1.3-.1.6-.2.9-.2 1v10.2H715zM730.3 172.5v-19.2h5.6v19.2h-5.6zM730.2 147.8c0-.7.3-1.4.8-1.9s1.2-.8 2.1-.8c.8 0 1.5.3 2.1.8.6.5.8 1.2.8 1.9 0 .8-.3 1.4-.8 1.9-.6.5-1.3.8-2.1.8s-1.5-.3-2.1-.8c-.5-.6-.8-1.2-.8-1.9zM739.5 181.1v-27.8h5.4v1.7c.6-.6 1.2-1.1 2-1.4 1.2-.5 2.5-.8 3.8-.8 1.5 0 2.8.3 4 .8 1.2.5 2.2 1.2 3 2.1.8.9 1.5 2 1.9 3.2.4 1.2.6 2.5.6 3.9s-.2 2.7-.7 3.9c-.4 1.2-1.1 2.3-1.9 3.2-.8.9-1.8 1.6-2.9 2.1-1.1.5-2.4.8-3.8.8-.9 0-1.7-.1-2.4-.3-.7-.2-1.3-.4-1.9-.7-.5-.3-1-.6-1.4-1 0 0-.1 0-.1-.1v10.2h-5.6zm10.2-23c-.7 0-1.4.1-2 .4-.6.3-1.1.6-1.5 1.1-.4.4-.7 1-.9 1.6-.2.6-.3 1.2-.3 1.9 0 .6.1 1.3.3 1.9.2.6.5 1.1.9 1.6.4.4.9.8 1.5 1.1.6.3 1.3.4 2 .4s1.4-.1 2-.4c.6-.3 1.1-.6 1.5-1.1.4-.4.7-1 .9-1.6.2-.6.3-1.2.3-1.9 0-.6-.1-1.3-.3-1.9-.2-.6-.5-1.1-.9-1.6-.4-.4-.9-.8-1.5-1.1-.6-.3-1.3-.4-2-.4zM762.3 181.1v-27.8h5.4v1.7c.6-.6 1.2-1.1 2-1.4 1.2-.5 2.5-.8 3.8-.8 1.5 0 2.8.3 3.9.8 1.2.5 2.2 1.2 3 2.1.8.9 1.5 2 1.9 3.2.4 1.2.6 2.5.6 3.9s-.2 2.7-.7 3.9c-.4 1.2-1.1 2.3-1.9 3.2-.8.9-1.8 1.6-2.9 2.1-1.1.5-2.4.8-3.8.8-.9 0-1.7-.1-2.4-.3-.7-.2-1.3-.4-1.9-.7-.5-.3-1-.6-1.4-1 0 0-.1 0-.1-.1v10.2h-5.5zm10.3-23c-.7 0-1.4.1-2 .4-.6.3-1.1.6-1.5 1.1-.4.4-.7 1-.9 1.6-.2.6-.3 1.2-.3 1.9 0 .6.1 1.3.3 1.9.2.6.5 1.1.9 1.6.4.4.9.8 1.5 1.1.6.3 1.3.4 2 .4s1.4-.1 2-.4c.6-.3 1.1-.6 1.5-1.1.4-.4.7-1 .9-1.6.2-.6.3-1.2.3-1.9 0-.6-.1-1.3-.3-1.9-.2-.6-.5-1.1-.9-1.6-.4-.4-.9-.8-1.5-1.1-.6-.3-1.3-.4-2-.4zM785.3 143.3h5.6v29.6h-5.6zM803.5 173c-1.4 0-2.8-.2-4-.7-1.3-.5-2.4-1.2-3.3-2-.9-.9-1.7-1.9-2.2-3.2-.5-1.2-.8-2.6-.8-4.1 0-1.5.3-2.9.8-4.1.5-1.2 1.3-2.3 2.2-3.2.9-.9 2-1.6 3.3-2 1.3-.5 2.6-.7 4-.7 1.3 0 2.6.2 3.7.7 1.1.5 2.1 1.2 2.9 2 .8.9 1.4 2 1.8 3.3.4 1.3.7 2.7.7 4.4v1.8h-13.7c.2.9.6 1.7 1.3 2.2.8.7 1.8 1 2.9 1 1 0 1.9-.2 2.6-.6.7-.4 1.3-1 1.9-1.6l.3-.4 4.1 3.1-.3.4c-1.1 1.4-2.4 2.4-3.8 2.9s-2.9.8-4.4.8zm3.4-12.4c-.1-.9-.5-1.7-1-2.2-.7-.7-1.7-1-3-1-1.2 0-2.2.3-2.8 1-.6.6-1 1.3-1.2 2.2h8z"/></g><radialGradient id="h" cx="691.395" cy="162.247" r="18.992" gradientUnits="userSpaceOnUse"><stop offset="0" stop-color="#4192B7"/><stop offset="1" stop-color="#3369A8"/></radialGradient><path fill="url(#h)" d="M702.2 166.6c-1.4-.8-3-1.2-4.5-1.1-.6 0-1.1-.2-1.6-.4-1-.6-1.6-1.7-1.6-2.8 0-1.2.6-2.2 1.6-2.8.5-.3 1.1-.4 1.6-.4 1.6.1 3.1-.3 4.5-1.1 2.6-1.5 4.1-4.2 4.1-7.1 0-2.7-1.3-5.2-3.5-6.8-.2-.1-.4-.3-.6-.4-2.6-1.5-5.7-1.5-8.2 0-2.6 1.5-4.1 4.2-4.1 7.1 0 1.6.5 3.1 1.3 4.4.3.5.5 1.1.5 1.7 0 1.2-.6 2.2-1.6 2.8-.5.3-1.1.4-1.6.4-.6 0-1.1-.2-1.6-.4-.5-.3-.9-.7-1.2-1.2-.7-1.4-1.8-2.5-3.2-3.3-2.6-1.5-5.7-1.5-8.2 0-2.5 1.5-4.1 4.2-4.1 7.1 0 2.9 1.5 5.5 3.9 7 .1 0 .1.1.2.1 2.6 1.5 5.7 1.5 8.2 0 1.4-.8 2.5-2 3.2-3.3.3-.5.7-.9 1.2-1.2.5-.3 1.1-.4 1.6-.4.6 0 1.1.2 1.6.4 1 .6 1.6 1.7 1.6 2.8 0 .6-.2 1.2-.5 1.7-.8 1.3-1.3 2.8-1.3 4.4 0 2.9 1.6 5.7 4.1 7.1 2.6 1.5 5.7 1.5 8.2 0 .3-.2.5-.3.8-.5 2.1-1.5 3.4-4 3.4-6.7-.1-2.9-1.7-5.6-4.2-7.1z"/><path fill="none" stroke="#DCDCDC" stroke-miterlimit="10" d="M702.9 180.4l64.5 87.9M702.8 144l64.9-92.8"/><circle fill="#6CB8DD" cx="746.8" cy="240.1" r="2.7"/><circle fill="#6CB8DD" cx="748.5" cy="79" r="2.9"/><circle fill="#6CB8DD" cx="718.8" cy="202.2" r="3.8"/><circle fill="#6CB8DD" cx="733.1" cy="290" r="3.8"/><circle fill="#6CB8DD" cx="725.2" cy="113.5" r="4.4"/></g></svg>