<svg xmlns="http://www.w3.org/2000/svg" viewBox="0 0 1017.2 320.6" enable-background="new 0 0 1017.2 320.6"><g><g fill="none" stroke="#DCDCDC" stroke-miterlimit="10"><path d="M513.5 162.7h163.3M725.2 29.2h31.1"/></g><linearGradient id="a" gradientUnits="userSpaceOnUse" x1="877.889" y1="132.759" x2="877.889" y2="186.385"><stop offset="0" stop-color="#4393B8"/><stop offset="1" stop-color="#346AA9"/></linearGradient><path fill="url(#a)" d="M877.9 186.4c-2.9 0-5.7-.5-8.3-1.3-8.1-2.6-14.6-9.1-17.2-17.2-.9-2.6-1.3-5.4-1.3-8.3 0-11.9 7.8-22 18.5-25.5 2.6-.9 5.4-1.3 8.3-1.3 14.8 0 26.8 12 26.8 26.8s-12 26.8-26.8 26.8z"/><path fill="#6CB8DD" d="M836 261.8c-2.3-1.7-4.3-3.7-5.9-5.9-6.6-9.1-7-21.9 0-31.5 7-9.6 19.2-13.2 30-9.8 2.6.8 5.1 2.1 7.5 3.8 12 8.7 14.6 25.5 5.9 37.5-8.8 12-25.5 14.6-37.5 5.9z"/><linearGradient id="b" gradientUnits="userSpaceOnUse" x1="783.229" y1="263.148" x2="783.229" y2="316.788"><stop offset="0" stop-color="#4393B8"/><stop offset="1" stop-color="#346AA9"/></linearGradient><path fill="url(#b)" d="M761.5 305.7c-1.6-2.2-2.9-4.7-3.8-7.5-.9-2.7-1.3-5.5-1.3-8.3 0-5.7 1.8-11.2 5.1-15.8 1.6-2.2 3.6-4.2 5.8-5.9 2.2-1.6 4.8-3 7.6-3.9 11.3-3.7 23.3.6 30 9.7 1.6 2.2 2.9 4.7 3.8 7.5 4.6 14.1-3.1 29.2-17.2 33.8-11.3 3.8-23.3-.4-30-9.6z"/><path fill="none" stroke="#DCDCDC" stroke-miterlimit="10" d="M756.4 290h-31.1"/><path fill="#4393B8" d="M673 281.7c.9-2.7 2.2-5.3 3.8-7.5 1.7-2.3 3.7-4.3 5.9-5.9 6.7-4.9 15.6-6.6 24.1-3.8 11.3 3.7 18.5 14.2 18.5 25.5 0 2.7-.4 5.5-1.3 8.3-4.6 14.1-19.7 21.8-33.8 17.2-14.1-4.6-21.8-19.7-17.2-33.8z"/><path fill="#6CB8DD" d="M608.3 224.5c1.6-2.2 3.6-4.2 5.9-5.9 2.3-1.7 4.9-3 7.5-3.8 7.5-2.4 15.7-1.4 22.4 2.7 2.9 1.8 5.5 4.1 7.6 7.1 1.7 2.3 3 4.9 3.8 7.5 2.6 8.1 1.2 17.1-3.8 24-1.6 2.2-3.6 4.2-5.9 5.9-12 8.7-28.7 6.1-37.5-5.9-7-9.7-6.7-22.5 0-31.6z"/><path fill="none" stroke="#DCDCDC" stroke-miterlimit="10" d="M651.7 256l25.1 18.2"/><path fill="#6CB8DD" d="M645.6 57.4c2.3 1.7 4.3 3.7 5.9 5.9 6.7 9.1 7 21.9 0 31.5-2.3 3.1-5.1 5.6-8.2 7.4-6.5 3.8-14.5 4.7-21.7 2.3-2.6-.8-5.1-2.1-7.5-3.8-2.3-1.7-4.3-3.7-5.9-5.9-6.6-9.1-7-21.9 0-31.5 8.7-11.9 25.5-14.6 37.4-5.9z"/><path fill="#4393B8" d="M723.9 21c4.6 14.1-3.1 29.2-17.2 33.8-11.3 3.7-23.3-.6-30-9.7-1.6-2.2-2.9-4.7-3.8-7.5-4.6-14.1 3.1-29.2 17.2-33.8 14.1-4.6 29.2 3.1 33.8 17.2z"/><path fill="none" stroke="#DCDCDC" stroke-miterlimit="10" d="M676.7 45.1l-25.1 18.2"/><linearGradient id="c" gradientUnits="userSpaceOnUse" x1="783.105" y1="2.417" x2="783.105" y2="56.056"><stop offset="0" stop-color="#4393B8"/><stop offset="1" stop-color="#346AA9"/></linearGradient><path fill="url(#c)" d="M808.6 37.5c-.9 2.7-2.2 5.3-3.8 7.5-6.6 9.2-18.6 13.4-30 9.7-2.6-.8-5-2-7.1-3.5-2.5-1.7-4.6-3.8-6.3-6.2-4.9-6.7-6.6-15.6-3.8-24.1 4.6-14.1 19.7-21.8 33.8-17.2s21.8 19.7 17.2 33.8z"/><path fill="#4393B8" d="M877.2 70.7c3.5 10.8-.1 23-9.7 30-2.3 1.7-4.9 3-7.5 3.8-10.8 3.5-23-.1-30-9.7-1.7-2.3-3-4.9-3.8-7.5-2.6-8.1-1.2-17.1 3.8-24 1.6-2.2 3.6-4.2 5.9-5.9 12-8.7 28.7-6.1 37.5 5.9 1.7 2.3 2.9 4.8 3.8 7.4z"/><path fill="none" stroke="#ccc" stroke-miterlimit="10" d="M273.2 162.7h188.9M464.6 175"/><linearGradient id="d" gradientUnits="userSpaceOnUse" x1="438.363" y1="87.58" x2="438.363" y2="237.81"><stop offset="0" stop-color="#6E6E6E"/><stop offset="1" stop-color="#424242"/></linearGradient><path fill="url(#d)" d="M513.5 162.7c0 36.2-25.7 66.5-59.8 73.6-3 .6-6.1 1.1-9.3 1.3-2 .2-4 .2-6 .2-41.5 0-75.1-33.6-75.1-75.1 0-2.7.1-5.4.4-8 4-37.7 35.9-67.1 74.7-67.1 2 0 4 .1 6 .2 3.2.2 6.3.7 9.3 1.3 34.1 7.1 59.8 37.4 59.8 73.6z"/><circle fill="#6C6C6C" cx="339.8" cy="162.7" r="7.8"/><circle fill="#6C6C6C" cx="286.8" cy="162.7" r="2.9"/><circle fill="#6C6C6C" cx="651.6" cy="162.7" r="2.9"/><text transform="translate(72.154 153.905)"><tspan x="0" y="0" fill="#231F20" font-family="'OpenSans-Light'" font-size="14">Clara</tspan><tspan x="-23.7" y="20" fill="#231F20" font-family="'OpenSans-Light'" font-size="14">from Europe</tspan></text><path opacity=".2" fill="#fff" d="M453.8 89.2c12.8 2.7 24.4 8.6 33.9 16.8 8.2 7.1 14.8 16 19.3 26 4.2 9.4 6.5 19.7 6.5 30.7 0 10.3-2.1 20.2-5.9 29.2-1.5 3.6-3.3 7.1-5.4 10.4-2.6 4.1-5.5 8-8.9 11.6-8.7 9.3-19.7 16.4-32.1 20.4-2.5.8-5 1.4-7.5 2-3 .6-6.1 1.1-9.3 1.3-2 .2-4 .2-6 .2V87.6c2 0 4 .1 6 .2 3.1.3 6.2.7 9.4 1.4-.1 0-.1 0 0 0z"/><text transform="translate(616.093 84.575)" fill="#fff" font-family="'OpenSans-Light'" font-size="14">USD</text><text transform="translate(772.217 34.031)" fill="#fff" font-family="'OpenSans-Light'" font-size="14">XRP</text><text transform="translate(617.468 245.737)" fill="#fff" font-family="'OpenSans-Light'" font-size="14">CNY</text><text transform="translate(688.873 296.6)" fill="#fff" font-family="'OpenSans-Light'" font-size="14">JPY</text><text transform="translate(768.633 296.6)" fill="#fff" font-family="'OpenSans-Light'" font-size="14">KRW</text><text transform="translate(838.075 245.738)" fill="#fff" font-family="'OpenSans-Light'" font-size="14">XAU</text><text transform="translate(864.86 165.389)" fill="#fff" font-family="'OpenSans-Light'" font-size="14">XAG</text><text transform="translate(836.887 84.575)" fill="#fff" font-family="'OpenSans-Light'" font-size="14">MXN</text><text transform="translate(425.959 210.426)" fill="#fff" font-family="'OpenSans-Light'" font-size="14">BTC</text><text transform="translate(685.336 35.355)" fill="#fff" font-family="'OpenSans-Light'" font-size="14">EUR</text><circle fill="#6C6C6C" cx="569.5" cy="162.7" r="4.7"/><circle fill="#6CB8DD" cx="664.2" cy="265.1" r="3.8"/><circle fill="#6CB8DD" cx="739.8" cy="29.3" r="3.8"/><circle fill="#6CB8DD" cx="664.2" cy="54.2" r="3.8"/><path fill="none" stroke="#DCDCDC" stroke-miterlimit="10" d="M748.5 79.1h76.4"/><circle fill="#6CB8DD" cx="812.5" cy="79" r="3.8"/><path fill="none" stroke="#DCDCDC" stroke-miterlimit="10" d="M824.9 240.1h-78.1M852.4 167.9l-90.1 72.3"/><circle fill="#6CB8DD" cx="813.5" cy="198.5" r="3.8"/><circle fill="#6CB8DD" cx="762.3" cy="240.2" r="3"/><g fill="#424242"><path d="M715 172.5v-19.2h5.6v1.7c.4-.5.9-.9 1.4-1.2 1-.6 2.2-.9 3.5-.9.3 0 .6 0 .9.1.3.1.6.1.9.2l.4.1v5.5l-.7-.2c-.4-.1-.7-.2-1.1-.2-.3-.1-.7-.1-1-.1-1 0-1.7.2-2.3.5-.6.3-1 .7-1.3 1.2-.3.4-.5.9-.6 1.3-.1.6-.2.9-.2 1v10.2H715zM730.3 172.5v-19.2h5.6v19.2h-5.6zM730.2 147.8c0-.7.3-1.4.8-1.9s1.2-.8 2.1-.8c.8 0 1.5.3 2.1.8.6.5.8 1.2.8 1.9 0 .8-.3 1.4-.8 1.9-.6.5-1.3.8-2.1.8s-1.5-.3-2.1-.8c-.5-.6-.8-1.2-.8-1.9zM739.5 181.1v-27.8h5.4v1.7c.6-.6 1.2-1.1 2-1.4 1.2-.5 2.5-.8 3.8-.8 1.5 0 2.8.3 4 .8 1.2.5 2.2 1.2 3 2.1.8.9 1.5 2 1.9 3.2.4 1.2.6 2.5.6 3.9s-.2 2.7-.7 3.9c-.4 1.2-1.1 2.3-1.9 3.2-.8.9-1.8 1.6-2.9 2.1-1.1.5-2.4.8-3.8.8-.9 0-1.7-.1-2.4-.3-.7-.2-1.3-.4-1.9-.7-.5-.3-1-.6-1.4-1 0 0-.1 0-.1-.1v10.2h-5.6zm10.2-23c-.7 0-1.4.1-2 .4-.6.3-1.1.6-1.5 1.1-.4.4-.7 1-.9 1.6-.2.6-.3 1.2-.3 1.9 0 .6.1 1.3.3 1.9.2.6.5 1.1.9 1.6.4.4.9.8 1.5 1.1.6.3 1.3.4 2 .4s1.4-.1 2-.4c.6-.3 1.1-.6 1.5-1.1.4-.4.7-1 .9-1.6.2-.6.3-1.2.3-1.9 0-.6-.1-1.3-.3-1.9-.2-.6-.5-1.1-.9-1.6-.4-.4-.9-.8-1.5-1.1-.6-.3-1.3-.4-2-.4zM762.3 181.1v-27.8h5.4v1.7c.6-.6 1.2-1.1 2-1.4 1.2-.5 2.5-.8 3.8-.8 1.5 0 2.8.3 3.9.8 1.2.5 2.2 1.2 3 2.1.8.9 1.5 2 1.9 3.2.4 1.2.6 2.5.6 3.9s-.2 2.7-.7 3.9c-.4 1.2-1.1 2.3-1.9 3.2-.8.9-1.8 1.6-2.9 2.1-1.1.5-2.4.8-3.8.8-.9 0-1.7-.1-2.4-.3-.7-.2-1.3-.4-1.9-.7-.5-.3-1-.6-1.4-1 0 0-.1 0-.1-.1v10.2h-5.5zm10.3-23c-.7 0-1.4.1-2 .4-.6.3-1.1.6-1.5 1.1-.4.4-.7 1-.9 1.6-.2.6-.3 1.2-.3 1.9 0 .6.1 1.3.3 1.9.2.6.5 1.1.9 1.6.4.4.9.8 1.5 1.1.6.3 1.3.4 2 .4s1.4-.1 2-.4c.6-.3 1.1-.6 1.5-1.1.4-.4.7-1 .9-1.6.2-.6.3-1.2.3-1.9 0-.6-.1-1.3-.3-1.9-.2-.6-.5-1.1-.9-1.6-.4-.4-.9-.8-1.5-1.1-.6-.3-1.3-.4-2-.4zM785.3 143.3h5.6v29.6h-5.6zM803.5 173c-1.4 0-2.8-.2-4-.7-1.3-.5-2.4-1.2-3.3-2-.9-.9-1.7-1.9-2.2-3.2-.5-1.2-.8-2.6-.8-4.1 0-1.5.3-2.9.8-4.1.5-1.2 1.3-2.3 2.2-3.2.9-.9 2-1.6 3.3-2 1.3-.5 2.6-.7 4-.7 1.3 0 2.6.2 3.7.7 1.1.5 2.1 1.2 2.9 2 .8.9 1.4 2 1.8 3.3.4 1.3.7 2.7.7 4.4v1.8h-13.7c.2.9.6 1.7 1.3 2.2.8.7 1.8 1 2.9 1 1 0 1.9-.2 2.6-.6.7-.4 1.3-1 1.9-1.6l.3-.4 4.1 3.1-.3.4c-1.1 1.4-2.4 2.4-3.8 2.9s-2.9.8-4.4.8zm3.4-12.4c-.1-.9-.5-1.7-1-2.2-.7-.7-1.7-1-3-1-1.2 0-2.2.3-2.8 1-.6.6-1 1.3-1.2 2.2h8z"/></g><radialGradient id="e" cx="691.395" cy="162.247" r="18.992" gradientUnits="userSpaceOnUse"><stop offset="0" stop-color="#4192B7"/><stop offset="1" stop-color="#3369A8"/></radialGradient><path fill="url(#e)" d="M702.2 166.6c-1.4-.8-3-1.2-4.5-1.1-.6 0-1.1-.2-1.6-.4-1-.6-1.6-1.7-1.6-2.8 0-1.2.6-2.2 1.6-2.8.5-.3 1.1-.4 1.6-.4 1.6.1 3.1-.3 4.5-1.1 2.6-1.5 4.1-4.2 4.1-7.1 0-2.7-1.3-5.2-3.5-6.8-.2-.1-.4-.3-.6-.4-2.6-1.5-5.7-1.5-8.2 0-2.6 1.5-4.1 4.2-4.1 7.1 0 1.6.5 3.1 1.3 4.4.3.5.5 1.1.5 1.7 0 1.2-.6 2.2-1.6 2.8-.5.3-1.1.4-1.6.4-.6 0-1.1-.2-1.6-.4-.5-.3-.9-.7-1.2-1.2-.7-1.4-1.8-2.5-3.2-3.3-2.6-1.5-5.7-1.5-8.2 0-2.5 1.5-4.1 4.2-4.1 7.1 0 2.9 1.5 5.5 3.9 7 .1 0 .1.1.2.1 2.6 1.5 5.7 1.5 8.2 0 1.4-.8 2.5-2 3.2-3.3.3-.5.7-.9 1.2-1.2.5-.3 1.1-.4 1.6-.4.6 0 1.1.2 1.6.4 1 .6 1.6 1.7 1.6 2.8 0 .6-.2 1.2-.5 1.7-.8 1.3-1.3 2.8-1.3 4.4 0 2.9 1.6 5.7 4.1 7.1 2.6 1.5 5.7 1.5 8.2 0 .3-.2.5-.3.8-.5 2.1-1.5 3.4-4 3.4-6.7-.1-2.9-1.7-5.6-4.2-7.1z"/><path fill="none" stroke="#DCDCDC" stroke-miterlimit="10" d="M702.9 180.4l64.5 87.9M702.8 144l64.9-92.8"/><circle fill="#6CB8DD" cx="746.8" cy="240.1" r="2.7"/><circle fill="#6CB8DD" cx="748.5" cy="79" r="2.9"/><circle fill="#6CB8DD" cx="718.8" cy="202.2" r="3.8"/><circle fill="#6CB8DD" cx="733.1" cy="290" r="3.8"/><circle fill="#6CB8DD" cx="725.2" cy="113.5" r="4.4"/><path fill="#fff" d="M371.2 152.6c3.1 0 6.4-.6 9.4.4 1.7.5 3.2 2 3.2 3.8.2 1.9-1.2 3.5-2.3 4.9 1.3.7 2.5 1.5 3.1 2.9 1.3 2.9 0 6.8-3 8-3.2 1.3-6.7.6-10.1.8-.1-5.5 0-11 0-16.6.1-1.5-.1-2.9-.3-4.2zm4.4 2.8v5.3c1.2 0 2.4.1 3.6.1.6-1.4 1.3-3 .5-4.5-.9-1.2-2.7-.9-4.1-.9zm.1 8.2c-.1 2.2 0 4.4 0 6.6 1.2 0 2.4.1 3.6-.3 2.1-.8 2.6-4 .9-5.4-1.4-.9-3-.8-4.5-.9zM389.1 152.6h4.4c.1 5.6.1 11.2.1 16.8 0 1.3.2 2.6.3 3.9h-4.4v-16.1c0-1.6-.2-3.1-.4-4.6zM396.7 152.6h17.2v3.1c-2.3.1-4.5 0-6.7.1.2 5.9-.3 11.7.4 17.6h-4.4c-.1-5.9 0-11.7 0-17.6h-6.5v-3.2zM419.4 152.9c2.4-.8 5.1-.2 7.3 1l-.6 2.1c-1.8-.7-3.9-1.8-5.9-1-1.8.7-2.2 3.2-.9 4.5 1.9 2 4.8 2.6 6.7 4.7 2.4 2.5 1.5 7.3-1.7 8.8-2.8 1.4-6.5.7-8.6-1.5-.1-.9.1-1.7.2-2.6 1.8 1.3 3.8 2.9 6.1 2.5 2.1-.3 3.3-3.1 2-4.8-2.1-2.6-6.1-3.1-7.9-6.1-1.4-2.9.3-6.6 3.3-7.6zM451.3 153.6c.2-1.1 1.4-.9 2.2-1.1 1.9 5.3 3.9 10.6 5.8 15.9.6 1.7 1.4 3.2 2.1 4.9-1.1.1-2.3 0-3.4 0-.6-1.8-1.3-3.5-1.8-5.2-2.5-.1-5.1 0-7.6 0-.7 1.8-1.4 3.5-2 5.3h-2.7c2.3-6.7 4.9-13.2 7.4-19.8zm-2 12h5.9c-1-2.7-2-5.4-2.9-8.1l-3 8.1zM428.9 153c5.3-.3 10.7 0 16-.1v2.3h-6.7v14.6c0 1.2.2 2.3.3 3.5h-3.1c0-6 .1-12.1 0-18.1-2.1.1-4.3 0-6.4 0 0-.7-.1-1.5-.1-2.2zM464.4 152.8c.7.1 1.8-.3 2.3.5 3.1 4.2 5.9 8.5 9 12.7 2.6-4.2 5.3-8.3 7.9-12.5.3-.9 1.4-.6 2.1-.7v17c0 1.2.2 2.3.3 3.4h-3.1v-14.1c-2.3 4.1-4.9 7.9-7.4 11.8-2.8-3.9-5.8-7.6-8.2-11.7.2 4.7-.3 9.4.3 14h-2.8c-.1-5.1 0-10.2 0-15.3 0-1.6-.2-3.4-.4-5.1zM492.3 152.9c3.3.2 6.9-.7 9.9 1.2 1.9 1.2 2.6 3.5 2.6 5.6-.5 2.2-1.9 4.2-4 5.1-1.7.9-3.5.8-5.4.9.1 2.5-.1 5.1.3 7.6h-3.1v-16.1c.1-1.5-.1-2.9-.3-4.3zm3.1 2.2v8.2c1.4 0 2.9.2 4.2-.6 2.3-1.2 2.9-4.9.9-6.6-1.4-1.2-3.4-.9-5.1-1z"/><linearGradient id="f" gradientUnits="userSpaceOnUse" x1="153.603" y1="162.694" x2="272.859" y2="162.694"><stop offset="0" stop-color="#DEDEDE"/><stop offset="1" stop-color="#BFBFBF"/></linearGradient><circle fill="url(#f)" cx="213.2" cy="162.7" r="59.6"/><path opacity=".2" d="M273.2 163.5l-39.4-39.8-8.6-5.7-23.3 33.4-3.8 25.8-11.3 26 21.6 18.9c1.7.1 3.4.2 5.2.2 32.7 0 59.2-26.2 59.6-58.8z"/><path fill="#AE5132" d="M193.9 142.1s4 23.8-1 41l27.4-.2 13-2.3s-2-21 2.4-29.4c4.3-8.4-41.8-9.1-41.8-9.1z"/><path fill="#FACFBA" d="M236.1 177.8c-1.3-.5-6.9-2.4-6.9-2.4l-10.1-5.8h-8l-10.1 5.8s-5.6 1.9-6.9 2.4c-1.3.5-7.2 1.8-7.2 7.9v17.5h9.8v-12h1.6v12.1l16.9-.2 16.9.2v-12.1h1.6v12h9.8v-17.5c-.2-6.1-6.1-7.3-7.4-7.9z"/><path fill="#fff" d="M209.4 177.5l5.5 7.3 5.3-7.3 1.9 9.6-6.4 12.7-5.4-8.6z"/><path fill="#4C4C4C" d="M236.1 177.8c-1.3-.5-6.9-2.4-6.9-2.4l-6.5-4.4-7.7 26.6-6.7-26.3-7.3 4s-5.6 1.9-6.9 2.4c-1.3.5-7.2 1.8-7.2 7.9v17.5h9.8v-12h1.6v12.1l16.9-.2 16.9.2v-12.1h1.6v12h9.8v-17.5c-.2-6-6.1-7.2-7.4-7.8z"/><path fill="#fff" d="M210.3 167.8s-9.3 5.5-10.1 12c2.9-.9 6.8-2.4 6.8-2.4l7.9 7.4-4.6-8.9v-8.1zM219.8 167.8s9.4 5.5 10.1 12c-2.9-.9-6.8-2.4-6.8-2.4l-8.1 7.4 4.9-8.9-.1-8.1z"/><path fill="#FACFBA" d="M210.3 164.4h9.5v8h-9.5z"/><path fill="#D9AA97" d="M219.8 167.7s-2.2 1.3-4.7 1.3-4.7-1.3-4.7-1.3v-3.3h9.5v3.3z"/><path fill="#AE5132" d="M234.5 144.5s.3.7.6 2 .7 3 1.1 5.2c.4 2.1.7 4.6.9 7.2.1 1.3.2 2.7.3 4 .1 1.4.1 2.8.1 4.1v8.1c-.1 2.6-.1 5-.2 7v2.8c0 .8.1 1.6.1 2.2.1.6.1 1.1.2 1.4.1.3.1.5.1.5s-.2-.1-.5-.3c-.3-.2-.7-.5-1.2-1.1-.4-.5-1-1.2-1.5-2s-1-1.8-1.4-2.8c-.4-1.1-.8-2.2-1.2-3.4-.3-1.2-.7-2.5-.9-3.9l-.6-4.2c-.1-1.4-.2-2.9-.2-4.3s0-2.9.1-4.3.2-2.8.3-4.1c.3-2.7.8-5.2 1.3-7.3.5-2.1 1.1-3.9 1.6-5.1.7-1 1-1.7 1-1.7z"/><path fill="#FACFBA" d="M235.6 145.1c0 11.8-12 21.4-20.2 21.4s-20.2-9.6-20.2-21.4c0-11.8 9-21.4 20.2-21.4s20.2 9.6 20.2 21.4z"/><path fill="#AE5132" d="M227.6 121.4s-1.3-3.8-5.4-5-15.3-2.2-21.5 4.5c-6.2 6.7-9.5 12.4-8.6 18.9.9 6.5 3.5 12.7 4.3 13.3.7.6.4-1 .4-1s-.3-7.1.1-9.4c.4-2.2 1.8-7.6 5.9-8 4-.4 9.8.6 11.5.1s6-2.8 6.4-3.8l.4-1.1s1.8 2.2 3.8 3.7 6.7 4.6 7.9 5.5c1.2 1 1.4 1.4 1.7 3.9.3 2.6 0 9.3 0 9.3s.3 1.2.7.7c.4-.4 3.5-6.9 3.7-11.2.2-4.3.3-10.1-1.7-13.6s-4.4-6.9-9.6-6.8zM221.6 129.5v.7c0 .4-.1 1-.2 1.7-.3 1.4-.8 3.3-1.8 4.9-.2.4-.5.8-.7 1.2-.2.4-.6.7-.8 1.1-.3.4-.6.6-.9.9-.3.3-.6.5-.8.8-.3.2-.5.4-.7.6-.2.2-.4.3-.6.4-.3.2-.5.4-.5.4s.2-.2.5-.4l.5-.5c.2-.2.4-.4.6-.7.2-.3.5-.5.7-.8.2-.3.5-.6.7-1 .2-.4.5-.7.6-1.1.2-.4.4-.8.5-1.2.6-1.6.9-3.4 1-4.7v-1.5c0-.4-.1-.5-.1-.5l2-.3zM222.6 129.8s.6.5 1 1.5c.5.9.7 2.4.5 3.8-.1.7-.3 1.4-.6 2-.1.3-.3.6-.5.8-.2.3-.4.5-.5.7-.4.4-.7.6-1 .8-.3.2-.4.2-.4.2s0-.2.1-.5c0-.1.1-.3.1-.5.1-.2.1-.4.2-.6.1-.2.1-.5.2-.7.1-.3.1-.5.2-.8.1-.5.2-1.1.3-1.7.1-.6.1-1.2.2-1.7.1-.6.1-1.1.2-1.6-.1-.9 0-1.7 0-1.7zM201.9 144.1s.4-.5 1.2-1c.4-.3.9-.5 1.5-.7l.9-.3c.3-.1.6-.1 1-.1h1c.3 0 .6.1.9.2.3 0 .6.2.8.3.3.1.5.2.7.3.4.2.7.5.9.7l.3.3s-.2 0-.4-.1c-.1 0-.3-.1-.5-.2s-.4-.1-.6-.2c-.2-.1-.4-.1-.7-.2-.2 0-.5-.1-.8-.1-.5 0-1.1-.1-1.7 0-.6 0-1.1.1-1.7.2-.5.1-1 .3-1.5.4-.7.2-1.3.5-1.3.5zM204.6 147.4s.1-.5.6-1 1.3-.9 2.2-1c.4 0 .9 0 1.3.1s.8.3 1 .6c.3.2.4.5.5.6.1.2.1.3.1.3s-.1 0-.3.1c-.2 0-.5.1-.7.1-.3 0-.6.1-.9.1-.3 0-.6.1-.9.1-.6 0-1.3.1-1.9 0h-1zM228 144.1s-.6-.2-1.4-.5c-.4-.1-.9-.3-1.5-.4-.5-.1-1.1-.2-1.7-.2-.6-.1-1.1 0-1.7 0-.3 0-.5.1-.8.1-.2 0-.5.1-.7.2-.2.1-.4.1-.6.2-.2.1-.3.1-.5.2-.3.1-.4.1-.4.1l.3-.3c.2-.2.5-.5.9-.7.2-.1.4-.3.7-.3.3-.1.5-.2.8-.3.3-.1.6-.2.9-.2h1c.3 0 .6.1 1 .1l.9.3c.6.2 1.1.5 1.5.7.9.4 1.3 1 1.3 1zM225.3 147.4s-.5.1-1.1.1c-.6.1-1.3 0-1.9 0-.3 0-.6-.1-.9-.1-.3 0-.6-.1-.9-.1-.3 0-.5-.1-.7-.1-.2 0-.3-.1-.3-.1s0-.1.1-.3c.1-.2.3-.4.5-.6.3-.2.6-.4 1-.6.4-.1.9-.2 1.3-.1.9.1 1.7.5 2.2 1 .6.3.7.9.7.9z"/><path fill="#FDFAFB" d="M220.2 157.3c0 2.1-2.4 3.7-5.4 3.7-3 0-5.4-1.7-5.4-3.7h10.8z"/><circle fill="#D9AA97" cx="203.3" cy="150.8" r=".8"/><circle fill="#D9AA97" cx="205" cy="153.2" r=".8"/><circle fill="#D9AA97" cx="205.8" cy="150.8" r=".8"/><circle fill="#D9AA97" cx="225.9" cy="150.8" r=".8"/><circle fill="#D9AA97" cx="224.3" cy="153.2" r=".8"/><circle fill="#D9AA97" cx="223.4" cy="150.8" r=".8"/></g></svg>