<svg xmlns="http://www.w3.org/2000/svg" viewBox="0 0 628.9 245.5" enable-background="new 0 0 628.9 245.5"><g><g opacity=".1" fill="#1F527C"><path d="M47.9 28.9l12.8 16.3.3 53.9-12.6 16.5-12.5-16.3-.2-54.4 12.2-16zm.5 102.7l12.8 16.2.3 53.8L49 218.1l-12.6-16.2-.2-54.3 12.2-16zM172.7 20.2l-16.4 12.5H73.9L57.6 20.2 73.7 7.8h82.9l16.1 12.4zm1 206.6l-16.4 12.6H75l-16.4-12.6 16.2-12.4h82.9l16 12.4zm8.6-197.9l12.6 16.3.3 53.9-12.6 16.5-12.4-16.3-.4-54.4 12.5-16zm.6 102.7l12.6 16.2.3 53.8-12.6 16.5-12.3-16.2-.4-54.3 12.4-16zM370 226.8l-16.4 12.6h-82.4l-16.4-12.6 16.2-12.4h82.9l16.1 12.4zm8.6-197.9l12.6 16.3.3 53.9-12.5 16.5-12.4-16.3-.4-54.4 12.4-16zm.5 102.7l12.6 16.2.3 53.8-12.6 16.5-12.3-16.2-.4-54.3 12.4-16zM565.2 20.2l-16.4 12.5h-82.4l-16.3-12.5 16.1-12.5h82.9l16.1 12.5zm1.1 206.6l-16.4 12.6h-82.4l-16.4-12.6 16.2-12.4h82.9l16.1 12.4zm9.1-95.2l12.6 16.2.3 53.8-12.6 16.5-12.3-16.2-.4-54.3 12.4-16z"/></g><path opacity=".5" fill="#fff" d="M105.9 128.6l1.5 21-57.5 84.1-19.9 6.4-1.4-20.8 57.6-84.5z"/><path fill="#fff" d="M196.7 3.8l1.2 21-58.9 83.8-20.2 6.4-1.2-20.7 59.4-84zM121.5 128.6l-1 21 58.2 84.1 20.1 6.4 1-20.8-58.5-84.5z"/><path opacity=".5" fill="#fff" d="M255 44.4l.3 54.6-12.9 16.8-12.8-16.6-.4-93.1z"/><path fill="#fff" d="M369.2 18.7l-16.7 12.8H260L241.6 6.1h111.2zM369.6 122.9l-16.4 12.9h-84.3l-16.6-12.9 16.4-12.6h84.6zM383.4 242.1l-19.7-7.7-42.9-67.2 2.2-21 19.3 7.6 43.5 67.7zM451.9 45.6l.3 54.9-12.6 16.5-12.8-16.5-.4-93.2zM439.6 133.3l12.8 16.8.4 76.6-12.8 16.6-12.6-16.3-.5-77.1zM566.1 19.9l-16.5 12.8H457L438.5 7.3h111.2z"/><g fill="#1A4A6B"><path opacity=".3" d="M29.6 3.8l-1 21 59.7 83.8 20.1 6.4 1-20.7-59.9-84zM242.6 132.1l12.9 16.8.4 76.6-12.8 16.6-12.8-16.4-.3-77.1zM379 27.6l12.9 16.8.3 54.6-12.6 16.8-12.8-16.6-.4-55.1zM566.6 124.2L550.1 137h-84l-16.7-12.8 16.3-12.6h84.5z"/></g><path opacity=".5" fill="#fff" d="M575.9 28.8l13.2 16.8.3 54.9-12.9 16.5-12.8-16.5-.1-55.2z"/></g></svg>