<svg xmlns="http://www.w3.org/2000/svg" viewBox="0 0 149.4 149.4" enable-background="new 0 0 149.4 149.4"><g><linearGradient id="a" gradientUnits="userSpaceOnUse" x1="74.682" y1="1.243" x2="74.682" y2="145.244"><stop offset="0" stop-color="#4F92B9"/><stop offset="1" stop-color="#3C6AAB"/></linearGradient><circle fill="url(#a)" cx="74.7" cy="74.7" r="71.5"/><path fill="none" stroke="#fff" stroke-miterlimit="10" d="M93.9 82.4c-2.5-1.4-5.3-2.1-8.1-1.9-1 0-2-.3-2.9-.8-1.8-1-2.9-3-2.9-5 0-2.1 1.1-4 2.9-5 .9-.5 1.9-.8 2.9-.8 2.8.1 5.6-.5 8.1-1.9 4.5-2.6 7.3-7.5 7.3-12.7 0-5.2-2.8-10.1-7.3-12.7-4.5-2.6-10.1-2.6-14.7 0-4.5 2.6-7.3 7.5-7.3 12.7 0 2.8.8 5.6 2.3 7.9.5.9.8 1.9.8 3 0 2.1-1.1 4-2.9 5-.9.5-1.9.8-2.9.8s-2-.3-2.9-.8c-.9-.5-1.6-1.3-2.2-2.2-1.3-2.4-3.2-4.5-5.7-5.9-4.5-2.6-10.1-2.6-14.7 0-4.5 2.6-7.3 7.5-7.3 12.7 0 5.2 2.8 10.1 7.3 12.7 4.5 2.6 10.1 2.6 14.7 0 2.5-1.4 4.4-3.5 5.7-5.9.5-.9 1.2-1.7 2.2-2.2.9-.5 1.9-.8 2.9-.8s2 .3 2.9.8c1.8 1 2.9 3 2.9 5 0 1.1-.3 2.1-.8 3-1.5 2.3-2.3 5-2.3 7.9 0 5.2 2.8 10.1 7.3 12.7 4.5 2.6 10.1 2.6 14.7 0 4.5-2.6 7.3-7.5 7.3-12.7s-2.8-10.2-7.3-12.9z"/></g></svg>