<svg xmlns="http://www.w3.org/2000/svg" viewBox="0 0 172.2 33.5" enable-background="new 0 0 172.2 33.5"><g><g fill="#232323"><path d="M34.1 24.7V9.9h4.3v1.3c.3-.4.6-.6 1.1-.9.8-.5 1.7-.7 2.7-.7.3 0 .5 0 .7.1.2.1.5.1.6.1l.3.1v4.3l-.4-.2c-.3-.1-.6-.1-.8-.2-.3-.1-.5-.1-.8-.1-.7 0-1.3.1-1.7.4-.5.3-.8.6-1 .9-.3.3-.4.7-.5 1-.1.5-.1.6-.1.8v7.9h-4.4zM45.8 24.7V9.9h4.3v14.8h-4.3zM45.8 5.6c0-.6.2-1 .6-1.5.4-.4 1-.6 1.6-.6s1.2.2 1.6.6.6.9.6 1.5-.1 1.1-.6 1.4c-.5.4-1 .6-1.6.6s-1.2-.2-1.6-.6c-.4-.3-.6-.8-.6-1.4zM52.9 31.3V9.9H57v1.4c.5-.5.9-.8 1.5-1.1.9-.4 1.9-.6 2.9-.6 1.1 0 2.1.2 3 .6.9.4 1.7 1 2.3 1.7.6.7 1.1 1.5 1.5 2.4.3.9.5 1.9.5 3s-.2 2.1-.5 3c-.3 1-.8 1.7-1.5 2.4-.6.7-1.4 1.3-2.3 1.7-.9.4-1.9.6-2.9.6-.7 0-1.3-.1-1.9-.2-.5-.1-1-.3-1.4-.6-.4-.3-.8-.5-1-.7l-.1-.1v7.9h-4.2zm7.9-17.7c-.6 0-1.1.1-1.5.3-.5.2-.8.5-1.2.8-.3.3-.6.8-.7 1.2-.2.5-.3 1-.3 1.4 0 .5.1 1 .3 1.4.2.5.4.8.7 1.2.3.3.7.6 1.2.8.5.2 1 .3 1.5.3s1.1-.1 1.5-.3c.5-.2.8-.5 1.2-.8.3-.3.6-.8.7-1.2.2-.5.3-1 .3-1.4 0-.5-.1-1-.3-1.4-.2-.5-.4-.8-.7-1.2-.3-.3-.7-.6-1.2-.8s-1-.3-1.5-.3zM70.5 31.3V9.9h4.1v1.4c.5-.5.9-.8 1.5-1.1.9-.4 1.9-.6 2.9-.6 1.1 0 2.1.2 3 .6s1.7 1 2.3 1.7c.6.7 1.1 1.5 1.5 2.4.3.9.5 1.9.5 3s-.2 2.1-.5 3-.8 1.7-1.5 2.4c-.6.7-1.4 1.3-2.3 1.7-.9.4-1.9.6-2.9.6-.7 0-1.3-.1-1.9-.2-.5-.1-1-.3-1.4-.6-.4-.3-.8-.5-1.1-.7l-.1-.1v7.9h-4.1zm7.9-17.7c-.6 0-1.1.1-1.5.3-.5.2-.8.5-1.2.8-.3.3-.6.8-.7 1.2-.2.5-.3 1-.3 1.4 0 .5.1 1 .3 1.4.2.5.4.8.7 1.2.3.3.7.6 1.2.8.5.2 1 .3 1.5.3.6 0 1.1-.1 1.5-.3.5-.2.8-.5 1.2-.8.3-.3.6-.8.7-1.2.2-.5.3-1 .3-1.4 0-.5-.1-1-.3-1.4-.2-.5-.4-.8-.7-1.2-.3-.3-.7-.6-1.2-.8-.4-.2-.9-.3-1.5-.3zM88.2 2.1h4.3v22.8h-4.3zM102.2 25c-1.1 0-2.1-.2-3.1-.6-1-.4-1.8-.9-2.6-1.5-.7-.7-1.3-1.5-1.7-2.4-.5-1-.6-2-.6-3.2 0-1.2.2-2.3.6-3.2.4-1 1-1.7 1.7-2.4.7-.6 1.5-1.2 2.6-1.5 1-.4 2-.6 3.1-.6 1 0 2 .2 2.8.5.8.4 1.6.9 2.2 1.5.6.7 1.1 1.5 1.4 2.5.3 1 .5 2.1.5 3.4v1.4H98.6c.1.7.5 1.3 1 1.7.6.5 1.4.8 2.3.8.8 0 1.5-.1 2-.5.5-.3 1-.8 1.4-1.3l.3-.3 3.2 2.4-.3.3c-.8 1-1.8 1.8-2.9 2.3-1.1.5-2.2.7-3.4.7zm2.6-9.5c-.1-.7-.3-1.3-.8-1.7-.5-.5-1.3-.8-2.3-.8-1 0-1.7.3-2.2.8-.5.5-.8 1-.9 1.7h6.2z"/></g><radialGradient id="a" cx="17.764" cy="16.895" r="13.427" gradientUnits="userSpaceOnUse"><stop offset="0" stop-color="#4192B7"/><stop offset="1" stop-color="#3369A8"/></radialGradient><path fill="url(#a)" d="M25.4 20c-1-.6-2.1-.8-3.2-.8-.4 0-.8-.1-1.1-.3-.7-.4-1.2-1.2-1.2-2s.4-1.6 1.2-2c.3-.2.7-.3 1.2-.3 1.1.1 2.2-.2 3.2-.8 1.8-1 2.9-3 2.9-5.1 0-1.9-.9-3.7-2.5-4.8-.1-.1-.3-.2-.4-.3-1.8-1-4-1-5.8 0-1.8 1-2.9 3-2.9 5.1 0 1.1.3 2.2.9 3.1.2.4.3.8.3 1.2 0 .8-.4 1.6-1.2 2-.3.2-.7.3-1.2.3-.4 0-.8-.1-1.2-.3-.4-.2-.7-.5-.9-.9-.5-1-1.3-1.8-2.3-2.4-1.8-1-4-1-5.8 0-1.8 1-2.9 3-2.9 5s1.1 3.9 2.8 5l.1.1c1.8 1 4 1 5.8 0 1-.6 1.8-1.4 2.3-2.4.2-.4.5-.7.9-.9.3-.2.7-.3 1.2-.3.4 0 .8.1 1.2.3.7.4 1.2 1.2 1.2 2 0 .4-.1.8-.3 1.2-.6.9-.9 2-.9 3.1 0 2.1 1.1 4 2.9 5.1 1.8 1 4 1 5.8 0 .2-.1.4-.2.5-.3 1.5-1.1 2.4-2.8 2.4-4.7-.1-2-1.2-3.9-3-4.9z"/><g enable-background="new" fill="#336AAA"><path d="M116.7 23.6c.8 0 1.6-.1 2.2-.2v1.1c-.6.2-1.4.3-2.2.3-1.3 0-2.2-.3-2.9-1-.6-.7-.9-1.8-.9-3.2v-9.4h-2.2v-.8l2.2-.6.7-3.3h.7V10h4.3v1.2h-4.3v9.2c0 1.1.2 1.9.6 2.5.3.5 1 .7 1.8.7zM126.5 9.7c.6 0 1.3.1 2 .2l-.3 1.3c-.6-.2-1.2-.2-1.9-.2-1.2 0-2.3.5-3.1 1.6-.8 1.1-1.2 2.4-1.2 4v8.1h-1.3V10h1.1l.1 2.6h.1c.6-1.1 1.2-1.8 1.9-2.3s1.7-.6 2.6-.6zM139.1 24.6l-.3-2.3h-.1c-.7.9-1.5 1.6-2.3 2s-1.7.6-2.7.6c-1.4 0-2.5-.4-3.3-1.1-.8-.7-1.2-1.7-1.2-3 0-1.4.6-2.5 1.8-3.3s2.9-1.2 5.1-1.2l2.8-.1v-1c0-1.4-.3-2.4-.8-3.1-.6-.7-1.5-1.1-2.7-1.1-1.4 0-2.8.4-4.2 1.1l-.5-1.2c1.6-.8 3.2-1.1 4.8-1.1 1.6 0 2.8.4 3.6 1.2.8.8 1.2 2.1 1.2 3.9v9.7h-1.2zm-5.4-1c1.6 0 2.8-.4 3.7-1.3.9-.9 1.3-2.1 1.3-3.7v-1.4l-2.6.1c-2 .1-3.5.4-4.4 1s-1.3 1.4-1.3 2.5c0 .9.3 1.6.8 2.1.7.5 1.5.7 2.5.7zM148.9 9.7c1.1 0 2 .2 2.7.6s1.5 1 2.1 2h.1c-.1-1.1-.1-2.2-.1-3.3V3.7h1.3v20.9h-.9l-.3-2.2h-.1c-1.1 1.7-2.7 2.5-4.8 2.5-2 0-3.6-.6-4.6-1.9-1.1-1.3-1.6-3.1-1.6-5.5 0-2.5.5-4.5 1.6-5.8 1-1.3 2.6-2 4.6-2zm0 1.2c-1.6 0-2.8.6-3.6 1.7s-1.2 2.7-1.2 4.9c0 4.1 1.6 6.2 4.8 6.2 1.6 0 2.9-.5 3.6-1.4.8-1 1.2-2.5 1.2-4.7v-.2c0-2.3-.4-3.9-1.1-4.9-.8-1.1-2-1.6-3.7-1.6zM164.5 24.8c-2.1 0-3.8-.7-5-2-1.2-1.3-1.8-3.1-1.8-5.5 0-2.3.6-4.2 1.7-5.6 1.1-1.4 2.7-2.1 4.6-2.1 1.7 0 3.1.6 4.1 1.8 1 1.2 1.5 2.8 1.5 4.9v1.1h-10.5c0 2 .5 3.5 1.4 4.6.9 1.1 2.2 1.6 3.9 1.6.8 0 1.6-.1 2.2-.2.6-.1 1.4-.4 2.4-.8v1.2c-.8.4-1.6.6-2.3.7-.6.3-1.3.3-2.2.3zm-.4-13.9c-1.4 0-2.5.5-3.4 1.4-.9.9-1.3 2.3-1.5 4h9c0-1.7-.4-3-1.1-4-.7-1-1.7-1.4-3-1.4z"/></g></g></svg>