<svg xmlns="http://www.w3.org/2000/svg" viewBox="0 0 139.9 99.1" enable-background="new 0 0 139.9 99.1"><path fill="none" d="M0 0h139.9v99.1H0z"/><path d="M9.5 42.2c2 0 3.8.7 5.2 2.1 1.4 1.4 2.2 3.3 2.2 5.6s-.7 4.2-2.1 5.7c-1.4 1.5-3.1 2.2-5 2.2s-3.7-.8-5.2-2.5v2.3H1.4V36.5h3.2v8.6c1.3-1.9 2.9-2.9 4.9-2.9m-4.9 7.9c0 1.4.4 2.6 1.3 3.5.8.9 1.9 1.4 3.2 1.4s2.3-.5 3.3-1.4c.9-.9 1.4-2.1 1.4-3.5 0-1.5-.5-2.7-1.4-3.6-.9-1-2-1.4-3.3-1.4-1.3 0-2.3.5-3.2 1.4-.9.9-1.3 2.1-1.3 3.6"/><path d="M22.9 45v7.7c0 .7.2 1.3.6 1.7.4.4.9.6 1.6.6.7 0 1.3-.3 2-1l1.3 2.2c-1.1 1-2.4 1.5-3.7 1.5s-2.5-.5-3.5-1.4c-1-.9-1.4-2.2-1.4-3.8V45h-1.9v-2.6h1.9v-4.8H23v4.8h4V45h-4.1zM36 57.8c-2.1 0-3.9-.7-5.4-2.1-1.5-1.4-2.3-3.3-2.3-5.6s.8-4.2 2.4-5.6c1.6-1.5 3.5-2.2 5.8-2.2s4.2.8 5.8 2.4L40.4 47c-1.3-1.1-2.6-1.7-4-1.7-1.3 0-2.5.4-3.5 1.3s-1.5 2-1.5 3.4.5 2.6 1.5 3.5c1 1 2.2 1.5 3.6 1.5s2.7-.6 4-1.9l1.9 2c-1.8 1.8-4 2.7-6.4 2.7M52.9 45.5c.6-.8.9-1.6.9-2.4 0-.8-.3-1.5-.9-2-.6-.6-1.4-.8-2.3-.8-1.6 0-3 .8-4.1 2.5l-2.7-1.6c.9-1.3 1.8-2.3 2.9-3 1.1-.7 2.4-1 4.1-1 1.7 0 3.1.5 4.4 1.6 1.3 1.1 1.9 2.5 1.9 4.3 0 1-.3 2-.8 2.9-.5.9-1.5 2.1-2.9 3.6l-4.7 4.8h9v3.2H44v-2.8l6-6.1c1.4-1.4 2.3-2.4 2.9-3.2"/><path d="M70.3 45.5c-1.6 0-2.8.5-3.6 1.5-.8 1-1.2 2.4-1.2 4.1v6.5h-3.2V42.5h3.2v3c.5-.9 1.2-1.7 2.1-2.3.9-.6 1.8-.9 2.8-.9v3.2h-.1zM73 39.5c-.4-.4-.6-.9-.6-1.4 0-.5.2-1 .6-1.4.4-.4.9-.6 1.4-.6s1 .2 1.4.6c.4.4.6.9.6 1.4 0 .6-.2 1-.6 1.4-.4.4-.8.5-1.4.5s-1-.1-1.4-.5m3 18.1h-3.2V42.5H76v15.1zM88.1 42.2c2 0 3.8.7 5.2 2.1 1.4 1.4 2.2 3.3 2.2 5.6s-.7 4.2-2.1 5.7c-1.4 1.5-3.1 2.2-5 2.2s-3.6-.8-5.1-2.5v7.8h-3.2V42.5h3.2v2.6c1.1-1.9 2.7-2.9 4.8-2.9m-5 7.9c0 1.4.4 2.6 1.3 3.5.9.9 1.9 1.4 3.2 1.4 1.3 0 2.3-.5 3.3-1.4.9-.9 1.4-2.1 1.4-3.5 0-1.5-.5-2.7-1.4-3.6-.9-1-2-1.4-3.3-1.4-1.3 0-2.3.5-3.2 1.4-.9.9-1.3 2.1-1.3 3.6M106.6 42.2c2 0 3.8.7 5.2 2.1 1.4 1.4 2.2 3.3 2.2 5.6s-.7 4.2-2.1 5.7c-1.4 1.5-3.1 2.2-5 2.2s-3.6-.8-5.1-2.5v7.8h-3.2V42.5h3.2v2.6c1.2-1.9 2.8-2.9 4.8-2.9m-4.9 7.9c0 1.4.4 2.6 1.3 3.5.9.9 1.9 1.4 3.2 1.4 1.3 0 2.3-.5 3.3-1.4s1.4-2.1 1.4-3.5c0-1.5-.5-2.7-1.4-3.6-.9-1-2-1.4-3.3-1.4-1.3 0-2.3.5-3.2 1.4-.9.9-1.3 2.1-1.3 3.6"/><path d="M117.1 36.5h3.2v21.1h-3.2zM138.4 51.4h-11.9c.1 1.1.6 2 1.5 2.7.9.7 2 1 3.2 1 1.9 0 3.3-.6 4.3-1.8l1.8 2c-1.6 1.7-3.8 2.5-6.4 2.5-2.1 0-3.9-.7-5.4-2.1-1.5-1.4-2.2-3.3-2.2-5.7 0-2.4.8-4.3 2.3-5.7 1.5-1.4 3.3-2.1 5.4-2.1 2.1 0 3.8.6 5.2 1.9 1.4 1.2 2.2 3 2.2 5.1v2.2zm-11.8-2.5h8.7c0-1.3-.4-2.2-1.2-2.9-.8-.7-1.8-1-2.9-1-1.2 0-2.2.4-3.1 1.1-1.1.7-1.5 1.6-1.5 2.8"/><path d="M55.6 61.3l-2-2 3.2-3.2-3-3 2-2 5 5z"/></svg>