<svg xmlns="http://www.w3.org/2000/svg" viewBox="0 0 139.9 99.1" enable-background="new 0 0 139.9 99.1"><path fill="none" d="M0 0h139.9v99.1H0z"/><path d="M3.1 39.1c3.1 0 6.4-.6 9.4.4 1.7.5 3.2 2 3.2 3.8.2 1.9-1.2 3.5-2.3 4.9 1.3.7 2.5 1.5 3.1 2.9 1.3 2.9 0 6.8-3 8-3.2 1.3-6.7.6-10.1.8-.1-5.5 0-11 0-16.6.2-1.4-.1-2.8-.3-4.2zm4.5 2.8v5.3c1.2 0 2.4.1 3.6.1.6-1.4 1.3-3 .5-4.5-.9-1.2-2.7-.9-4.1-.9zm0 8.3c-.1 2.2 0 4.4 0 6.6 1.2 0 2.4.1 3.6-.3 2.1-.8 2.6-4 .9-5.4-1.3-1-3-.8-4.5-.9zM21 39.1h4.4c.1 5.6.1 11.2.1 16.8 0 1.3.2 2.6.3 3.9h-4.4V43.7c.1-1.5-.2-3.1-.4-4.6zM28.6 39.1h17.2v3.1c-2.3.1-4.5 0-6.7.1.2 5.9-.3 11.7.4 17.6h-4.4c-.1-5.9 0-11.7 0-17.6h-6.5v-3.2zM51.3 39.4c2.4-.8 5.1-.2 7.3 1l-.6 2.1c-1.8-.7-3.9-1.8-5.9-1-1.8.7-2.2 3.2-.9 4.5 1.9 2 4.8 2.6 6.7 4.7 2.4 2.5 1.5 7.3-1.7 8.8-2.8 1.4-6.5.7-8.6-1.5-.1-.9.1-1.7.2-2.6 1.8 1.3 3.8 2.9 6.1 2.5 2.1-.3 3.3-3.1 2-4.8-2.1-2.6-6.1-3.1-7.9-6.1-1.3-2.9.4-6.6 3.3-7.6zM83.2 40.2c.2-1.1 1.4-.9 2.2-1.1 1.9 5.3 3.9 10.6 5.8 15.9.6 1.7 1.4 3.2 2.1 4.9-1.1.1-2.3 0-3.4 0-.6-1.8-1.3-3.5-1.8-5.2-2.5-.1-5.1 0-7.6 0-.7 1.8-1.4 3.5-2 5.3h-2.7c2.3-6.8 4.9-13.3 7.4-19.8zm-2 11.9h5.9c-1-2.7-2-5.4-2.9-8.1l-3 8.1zM60.8 39.5c5.3-.3 10.7 0 16-.1v2.3h-6.7v14.6c0 1.2.2 2.3.3 3.5h-3.1c0-6 .1-12.1 0-18.1-2.1.1-4.3 0-6.4 0 0-.7 0-1.4-.1-2.2zM96.3 39.4c.7.1 1.8-.3 2.3.5 3.1 4.2 5.9 8.5 9 12.7 2.6-4.2 5.3-8.3 7.9-12.5.3-.9 1.4-.6 2.1-.7v17c0 1.2.2 2.3.3 3.4h-3.1V45.7c-2.3 4.1-4.9 7.9-7.4 11.8-2.8-3.9-5.8-7.6-8.2-11.7.2 4.7-.3 9.4.3 14h-2.8c-.1-5.1 0-10.2 0-15.3.1-1.7-.1-3.4-.4-5.1zM124.3 39.4c3.3.2 6.9-.7 9.9 1.2 1.9 1.2 2.6 3.5 2.6 5.6-.5 2.2-1.9 4.2-4 5.1-1.7.9-3.5.8-5.4.9.1 2.5-.1 5.1.3 7.6h-3.1V43.7c0-1.5-.2-2.9-.3-4.3zm3.1 2.3v8.2c1.4 0 2.9.2 4.2-.6 2.3-1.2 2.9-4.9.9-6.6-1.4-1.3-3.4-1-5.1-1z"/></svg>