<svg xmlns="http://www.w3.org/2000/svg" viewBox="0 0 139.9 99.1" enable-background="new 0 0 139.9 99.1"><path fill="none" d="M0 0h139.9v99.1H0z"/><path d="M21.7 26.7h-.5c-2.2 0-3.9 1.8-3.9 3.9v37.8c0 2.2 1.8 3.9 3.9 3.9H59c2.2 0 3.9-1.8 3.9-3.9v-.5c.1-22.7-18.4-41.2-41.2-41.2zm3.9 13.1c1.6-.1 3 1.1 3.1 2.6.1 1.6-1.1 3-2.6 3.1-1.6.1-3-1.1-3.1-2.6-.2-1.6 1-3 2.6-3.1zm-4.7 7.5c1.3-.9 3.1-.6 4 .7.9 1.3.6 3.1-.7 4-1.3.9-3.1.6-4-.7-.9-1.3-.6-3.1.7-4zM22 59.9c-1.4-.7-2.1-2.4-1.4-3.8.7-1.4 2.4-2.1 3.8-1.4 1.4.7 2.1 2.4 1.4 3.8-.7 1.5-2.4 2.1-3.8 1.4zm5.8 6.6c-1.6.1-3-1-3.1-2.6-.1-1.6 1.1-3 2.6-3.1 1.6-.1 3 1.1 3.1 2.6.2 1.6-1 3-2.6 3.1zm1.7-29.4c.7-1.4 2.4-2.1 3.8-1.4 1.4.7 2.1 2.4 1.4 3.8-.7 1.4-2.4 2.1-3.8 1.4-1.5-.7-2.1-2.4-1.4-3.8zm6.7 32.2c-1.3.9-3.1.6-4-.7-.9-1.3-.6-3.1.7-4 1.3-.9 3.1-.6 4 .7.9 1.3.6 3.1-.7 4zm1.2-30c-.9-1.3-.6-3.1.7-4 1.3-.9 3.1-.6 4 .7.9 1.3.6 3.1-.7 4-1.3.9-3.1.6-4-.7zm7.4 28.2c-.7 1.4-2.4 2.1-3.8 1.4-1.4-.7-2.1-2.4-1.4-3.8.7-1.4 2.4-2.1 3.8-1.4 1.5.6 2.1 2.3 1.4 3.8zm4-2.8c-1.6.1-3-1.1-3.1-2.6-.1-1.6 1-3 2.6-3.1 1.6-.1 3 1.1 3.1 2.6.1 1.6-1 3-2.6 3.1zM59 76.6H21.1c-4.3 0-7.9-3.5-7.9-7.9V29.6c0-3.9 3.1-7 7-7h39.5c4.1 0 7.5 3.4 7.5 7.5v5.6h-2.9v-5.6c0-2.6-2.1-4.6-4.6-4.6H20.2c-2.3 0-4.2 1.9-4.2 4.2v39.1c0 2.8 2.3 5 5 5h38c3 0 5.4-2.4 5.4-5.4V63h2.9v5.4c-.1 4.5-3.7 8.2-8.3 8.2zM69.2 47.6c-.6 1-1.7 1.7-2.9 1.7-2.4 0-4.2-2.1-4.2-5 0-3 1.8-5 4.2-5 1.2 0 2.3.7 2.9 1.7l.7-.5c-.8-1.2-2.1-2-3.7-2-2.9 0-5.1 2.4-5.1 5.9 0 3.5 2.2 5.9 5.1 5.9 1.6 0 2.8-.8 3.7-2l-.7-.7zM74.7 41.5c-2.1 0-3.5 1.9-3.5 4.3s1.4 4.3 3.5 4.3c2.2 0 3.5-1.9 3.5-4.3s-1.3-4.3-3.5-4.3zm0 7.9c-1.7 0-2.7-1.7-2.7-3.5s1-3.5 2.7-3.5c1.7 0 2.7 1.7 2.7 3.5s-1 3.5-2.7 3.5zM80.3 41.7V50h.7v-8.3h-.7zm.4-2.7c-.3 0-.6.3-.6.7 0 .4.3.7.6.7s.6-.3.6-.7c0-.4-.3-.7-.6-.7zM86.9 41.5c-1.1 0-2.1.7-2.6 1.5v-1.2h-.8V50h.8v-6.2c.5-.8 1.4-1.4 2.4-1.4 1.1 0 1.8.5 1.8 2.1V50h.8v-5.8c-.1-1.9-.9-2.7-2.4-2.7zM98.2 45.9c0-2.4-1.2-4.4-3.4-4.4-2 0-3.5 1.9-3.5 4.3 0 2.5 1.5 4.3 3.6 4.3 1.2 0 2.1-.5 2.9-1.3l-.4-.6c-.6.8-1.5 1.1-2.4 1.1-1.7 0-2.8-1.5-2.9-3.3h6.1v-.1zm-6.1-.5c.1-1.4.9-3.1 2.6-3.1 1.8 0 2.6 1.7 2.7 3.1h-5.3zM105 50l-2.4-3.6-2.4 3.6h-.9l2.9-4.2-2.7-4h.9l2.3 3.4 2.3-3.4h.9l-2.7 4L106 50h-1zM74.6 57.7v.9h3.8v2.7c-.5.6-1.6 1.4-3 1.4-2.4 0-4.2-2.1-4.2-5 0-3 1.8-5 4.2-5 1.3 0 2.4.6 3.1 1.6l.7-.5c-.9-1.2-2.1-1.9-3.8-1.9-2.8 0-5.1 2.4-5.1 5.9s2.3 5.9 5.1 5.9c1.6 0 2.9-.8 3.8-1.9v-4h-4.6zM84.1 54.9c-1.2 0-2.1.5-2.8 1.4l.4.6c.7-.9 1.4-1.2 2.3-1.2 1.1 0 1.9.7 1.9 1.9v1.7c-.6-.8-1.5-1.2-2.5-1.2-1.3 0-2.6.9-2.6 2.7 0 1.8 1.3 2.8 2.6 2.8 1 0 1.8-.4 2.5-1.2v1h.8v-5.8c.1-1.9-1.1-2.7-2.6-2.7zm1.9 6.8c-.5.8-1.3 1.1-2.2 1.1-1.2 0-2-.9-2-2 0-1.2.8-2.1 2-2.1.9 0 1.7.4 2.2 1.1v1.9zM91.8 62.4c-.2.2-.5.4-.8.4-.5 0-.8-.5-.8-1.1V56h1.5v-.8h-1.5v-2.3h-.8v2.3h-1.2v.8h1.2v5.9c0 1.1.5 1.8 1.4 1.8.6 0 1-.2 1.2-.5l-.2-.8zM100 59.3c0-2.4-1.2-4.4-3.4-4.4-2 0-3.5 1.9-3.5 4.3 0 2.5 1.5 4.3 3.6 4.3 1.2 0 2.1-.5 2.9-1.3l-.4-.6c-.6.8-1.5 1.1-2.4 1.1-1.7 0-2.8-1.5-2.9-3.3h6.1v-.1zm-6.1-.5c.1-1.4.9-3.1 2.6-3.1 1.8 0 2.6 1.7 2.7 3.1h-5.3zM108.2 63.4l-2-7.1-2.1 7.1h-.8l-2.4-8.3h.8l1.9 7 2.1-7h.7l2.1 7 1.9-7h.8l-2.4 8.3h-.6zM117.5 63.4v-1c-.6.8-1.5 1.2-2.5 1.2-1.3 0-2.6-1-2.6-2.8 0-1.8 1.3-2.7 2.6-2.7 1 0 1.8.4 2.5 1.2v-1.7c0-1.2-.9-1.9-1.9-1.9-.9 0-1.6.4-2.3 1.2l-.4-.6c.8-.9 1.6-1.4 2.8-1.4 1.5 0 2.7.8 2.7 2.7v5.8h-.9zm0-1.7v-1.8c-.5-.8-1.3-1.1-2.2-1.1-1.2 0-2 .9-2 2.1 0 1.2.8 2 2 2 .9 0 1.7-.4 2.2-1.2zM120.4 65.8c.2.1.5.1.6.1.5 0 .8-.2 1.1-1l.6-1.5-3.1-8.3h.9l2.7 7.2 2.6-7.2h.9l-3.8 10.1c-.4 1-1 1.5-1.9 1.5-.3 0-.6-.1-.8-.1l.2-.8z"/></svg>