<svg xmlns="http://www.w3.org/2000/svg" viewBox="0 0 139.9 99.1" enable-background="new 0 0 139.9 99.1"><path fill="none" d="M0 0h139.9v99.1H0z"/><path d="M56.6 64.4c-.3 1.8-1.4 2.5-2.1 2.8-.8.4-1.7.5-3.5.5h-3.8v-4.5c.4.1.7.2 1.5.2 1.3 0 1.9-.3 2.1-.9.1-.3.2-.6.2-1.2V49.6h5.7v13.1c0 .1 0 1.1-.1 1.7zM75.6 58.1c-.2.6-1.2 2.5-3.2 3.3-1.1.4-2.2.5-3.3.5h-4.4v5.9H59V49.6h10.3c1.8 0 3.4.1 4.8 1.4 1.8 1.6 1.9 3.7 1.9 4.5 0 .4 0 1.5-.4 2.6zM70 54.4c-.6-1-1.8-1-2.1-1h-3.2V58H68c.1 0 .6 0 1-.2.5-.2 1.3-.7 1.3-2.2 0-.1 0-.6-.3-1.2zM88.9 60.1v7.6h-5.7v-7.6l-7.3-10.5h6.6l3.6 6 3.5-6h6.6l-7.3 10.5zM30.5 78.2v5.4h-2.3v-5.4h-1.8v-1.8h5.9v1.8h-1.8zM39 82.9c-1 1-2.3 1-2.8 1s-1.8 0-2.8-1c-.7-.7-1.1-1.8-1.1-2.8 0-.5.1-1.8 1.1-2.8.4-.4 1.3-1 2.8-1 .5 0 1.7 0 2.7 1 .4.4 1.1 1.3 1.1 2.8.1.3 0 1.7-1 2.8zm-1.9-4.7c-.4-.2-.7-.2-.8-.2-.2 0-.7 0-1.1.4-.3.3-.5.8-.5 1.6 0 .1 0 1 .4 1.5.1.2.3.3.5.4.1.1.4.1.7.1.4 0 .8-.1 1.1-.4.3-.3.5-.8.5-1.6-.1-.2-.1-1.3-.8-1.8zM45.6 83.7L44 80.8 42.9 82v1.7h-2.3v-7.2h2.3v2.7l2.3-2.7H48l-2.5 2.7 2.7 4.5h-2.6zM53 80.6v3h-2.3v-3l-2.9-4.2h2.6l1.4 2.4 1.4-2.4h2.6L53 80.6zM61.9 82.9c-1 1-2.3 1-2.8 1s-1.8 0-2.8-1c-.7-.7-1.1-1.8-1.1-2.8 0-.5.1-1.8 1.1-2.8.4-.4 1.3-1 2.8-1 .5 0 1.7 0 2.7 1 .4.4 1.1 1.3 1.1 2.8.1.3.1 1.7-1 2.8zM60 78.2c-.4-.2-.7-.2-.8-.2-.2 0-.7 0-1.1.4-.3.3-.5.8-.5 1.6 0 .1 0 1 .4 1.5.1.2.3.3.5.4.1.1.4.1.7.1.4 0 .8-.1 1.1-.4.3-.3.5-.8.5-1.6-.1-.2 0-1.3-.8-1.8zM75.5 83.7v-7.2h2.3v7.2h-2.3zM84.3 83.2c-.9.7-2.1.7-2.5.7-1.1 0-2.1-.2-2.9-.8-.3-.2-.5-.5-.8-.8l1.7-1.1c.2.2.2.4.3.4.4.4 1.2.5 1.7.5.6 0 1.1-.2 1.1-.6 0-.1 0-.1-.1-.2s-.1-.2-.3-.3c-.3-.1-.7-.2-1.4-.3-1-.2-1.5-.4-1.9-.7-.2-.2-.6-.7-.6-1.5 0-.2 0-.6.3-1.1.7-1.3 2.6-1.3 2.9-1.3.4 0 1.7 0 2.7.8.2.2.4.3.6.5l-1.4 1.2c-.1-.1-.1-.2-.2-.2-.4-.4-1.1-.5-1.7-.5-.1 0-.3 0-.5.1 0 0-.3.1-.3.4 0 .1.1.3.2.3.2.1.6.2.8.2.3 0 .9.1 1.6.4.4.1 1.6.5 1.6 2 0 1.1-.6 1.7-.9 1.9zM91.5 83.2c-.9.7-2.1.7-2.5.7-1.1 0-2.1-.2-2.9-.8-.3-.2-.5-.5-.8-.8l1.7-1.1c.2.2.2.4.3.4.4.4 1.2.5 1.7.5.6 0 1.1-.2 1.1-.6 0-.1 0-.1-.1-.2s-.1-.2-.3-.3c-.3-.1-.7-.2-1.4-.3-1-.2-1.5-.4-1.9-.7-.2-.2-.6-.7-.6-1.5 0-.2 0-.6.3-1.1.7-1.3 2.6-1.3 2.9-1.3.4 0 1.7 0 2.7.8.2.2.4.3.6.5L91 78.7c-.1-.1-.1-.2-.2-.2-.4-.4-1.1-.5-1.7-.5-.1 0-.3 0-.5.1 0 0-.3.1-.3.4 0 .1.1.3.2.3.2.1.6.2.8.2.3 0 .9.1 1.6.4.4.1 1.6.5 1.6 2 0 1-.7 1.6-1 1.8zM99.3 82c-.5 1.3-1.8 1.8-3.1 1.8-.3 0-1 0-1.7-.3-.3-.1-1-.5-1.4-1.4-.1-.3-.1-.6-.1-1.4v-4.3h2.3V81c0 .1 0 .3.1.6.2.6.8.6.9.6.2 0 .7 0 .9-.6.1-.2.1-.3.1-.6v-4.5h2.3v4.3c-.1.4-.1.8-.3 1.2zM100.2 83.7v-7.2h5.7V78h-3.4v1.1h3.2v1.6h-3.2v1.4h3.7v1.6h-6zM111 83.7l-1.4-2.5h-.7v2.5h-2.3v-7.2h4.5c.3 0 1.2.1 1.8 1 .1.2.3.7.3 1.3 0 .7-.3 1.3-.8 1.7-.2.1-.3.2-.6.3l1.8 2.9H111zm-.2-5.4l-.2-.2c-.2-.1-.5-.1-.8-.1h-.9v1.7h1c.4 0 .9-.1 1.1-.5 0 0 .1-.2.1-.3-.1-.3-.2-.5-.3-.6zM36.9 13h20l16.9 27.3zM63.7 13l16.4 27.3h20z"/></svg>