<svg xmlns="http://www.w3.org/2000/svg" viewBox="0 0 139.9 99.1" enable-background="new 0 0 139.9 99.1"><path fill="none" d="M0 0h139.9v99.1H0z"/><path d="M91.6 36.6c2.2-2.3 6.1-2.7 8.6-.7.6.4 1 1 1.4 1.6-.6.4-1.2.8-1.8 1.1-.5-.8-1.3-1.5-2.2-1.8-1.6-.5-3.6.1-4.6 1.5-1.4 1.8-1.4 4.7.2 6.4.9 1 2.3 1.6 3.6 1.5 1.3-.1 2.4-.9 3.1-1.9.6.4 1.3.7 1.9 1.1-.6.7-1.1 1.4-1.9 1.8-2.7 1.8-6.7 1.1-8.6-1.5-2.1-2.6-2-6.7.3-9.1zM109.5 34.8c1.9-.3 4 .1 5.4 1.4 2.2 1.9 2.7 5.3 1.7 7.9-.6 1.6-1.7 2.9-3.3 3.6-1.8.8-3.9.7-5.7-.2-1.6-.8-2.7-2.4-3.2-4.1-.5-1.9-.3-4 .7-5.7 1-1.5 2.6-2.6 4.4-2.9zm0 2c-1.4.4-2.5 1.6-2.8 3-.4 1.7-.2 3.6.9 5 1.4 1.7 4.3 1.9 5.9.3 1-1 1.4-2.4 1.4-3.8s-.5-2.9-1.7-3.8c-1-.8-2.4-1-3.7-.7zM44.2 34.9h2.1V43c0 .8.1 1.5-.1 2.3-.3 1.1-1 2.1-2 2.5-1.5.6-3.2.6-4.6-.3-.5-.3-.9-.8-1.2-1.3.4-.6.9-1.1 1.3-1.7.4.5.7 1.1 1.3 1.4.9.6 2.2.4 2.8-.5.4-.5.5-1.1.5-1.7-.1-2.9-.1-5.9-.1-8.8zM50.6 34.9h2.1v8.3c0 1.1.6 2.4 1.7 2.8 1.2.5 2.9.3 3.8-.8.6-.7.7-1.6.7-2.5v-7.8H61v7.8c0 1.2-.2 2.5-.9 3.5-.7 1.1-2 1.8-3.3 2-1.8.3-3.8-.1-5-1.5-.9-1-1.3-2.5-1.3-3.8.1-2.7.1-5.3.1-8zM65.2 37.5c.4-1.3 1.6-2.3 2.9-2.6 2.2-.6 4.9.1 6.3 2.1-.5.5-.9 1.1-1.4 1.6-.5-.6-1-1.2-1.7-1.5-.5-.3-1.1-.3-1.6-.4-.8.1-1.8.3-2.2 1.1-.3.6 0 1.4.6 1.7 1.8.9 3.9.9 5.4 2.3 1.8 1.6 1.2 4.9-.9 5.9-2.6 1.3-6.2.6-8-1.9.5-.5.9-1.1 1.4-1.6.8 1 1.8 1.8 3.1 2 .9.1 2 .1 2.8-.6.6-.6.7-1.7.1-2.3-.7-.6-1.7-.8-2.5-1.1-1.2-.3-2.5-.7-3.4-1.6-1-.7-1.2-2-.9-3.1zM77.3 34.9h10v2h-4V48h-2.1V36.9h-3.9v-2zM120.9 34.9h2.1V48h-2.1V34.9zM127.3 34.9h1.9c2.2 3.1 4.5 6.1 6.7 9.1v-9.1h2.1V48h-1.8c-2.3-3.1-4.5-6.2-6.8-9.3V48h-2.1V34.9zM63.1 53.6c1.6-1.9 4.4-2.5 6.7-1.7 1 .4 1.9 1 2.5 1.9l-.9.6c-.8-1-2-1.7-3.3-1.8-1.5-.1-3 .5-4 1.5-2 2.1-1.9 5.7 0 7.8 1.4 1.5 3.8 2 5.6 1.1.7-.3 1.2-.8 1.7-1.4l.9.6c-.8.9-1.8 1.7-2.9 2-2.1.6-4.5 0-6.1-1.5-2.3-2.4-2.4-6.6-.2-9.1zM117.5 53.3c1.8-1.8 4.7-2.2 7-1.2.8.3 1.5 1 2.1 1.6-.3.2-.6.4-.8.6-1.7-2-4.8-2.3-6.9-.8-2.7 2-2.8 6.5-.2 8.7 1.9 1.7 5.1 1.5 6.9-.3v-3H121v-1h5.8V62c0 .4-.4.6-.7.9-2.3 1.9-5.9 1.9-8.2 0-2.9-2.3-3-7.1-.4-9.6zM38.3 51.7h7.9v1h-6.8v4.5H46v1h-6.6v4.9h6.8v1h-7.9V51.7zM48.7 51.8h1.4c1.3 1.7 2.7 3.5 4 5.2 1.3-1.7 2.7-3.5 4-5.2h1.4c-1.6 2-3.1 4-4.7 6 1.7 2.1 3.3 4.3 5 6.4h-1.4c-1.4-1.9-2.9-3.7-4.3-5.6-1.4 1.9-2.9 3.7-4.3 5.6h-1.4c1.6-2.1 3.3-4.3 5-6.4-1.5-2-3.1-4-4.7-6zM75.3 51.7h1.1v5.5h7.8v-5.5h1.1v12.4h-1.1v-5.9h-7.8v5.9h-1.1V51.7zM93.1 51.7h1.4c1.7 4.1 3.4 8.3 5.1 12.4h-1.3c-.4-1-.8-2-1.2-3.1h-6.5c-.4 1-.8 2-1.2 3.1h-1.3c1.6-4.1 3.3-8.2 5-12.4zm-2.2 8.4h5.8c-.9-2.4-1.9-4.8-2.9-7.2-1 2.5-2 4.8-2.9 7.2zM102.2 51.7h1.1c2.6 3.5 5.1 6.9 7.7 10.4V51.7h1.1v12.4H111c-2.6-3.5-5.2-7.1-7.8-10.6v10.6h-1.1c.1-4.1.1-8.2.1-12.4zM130.2 51.7h7.9v1h-6.8v4.5h6.7v1h-6.7v4.9h6.8v1h-7.9V51.7zM15.4 33.2c4.1-.8 8.6.1 12.1 2.4 2.8 1.8 4.9 4.4 6.2 7.5 1.7 3.9 1.7 8.5.2 12.5-1.2 3.1-3.4 5.8-6.1 7.7-2.4 1.7-5.4 2.7-8.3 2.8-3.3.2-6.6-.6-9.4-2.2-1.9-1.2-3.7-2.7-5-4.5 1.6.3 3.4.3 5-.1s3-1.4 3.9-2.7c1-1.6 1.4-3.5 1.5-5.3-.1-6.1-.1-12.1-.1-18.1zM6.4 37.7c1.5-1.4 3.2-2.6 5.2-3.3v15.7c-.1 1.1-.1 2.3-.6 3.3-.3.8-.9 1.4-1.6 1.8-.8.3-1.7.5-2.5.5-.9 0-1.9-.1-2.8-.6-.7-.4-1.3-1-1.6-1.8-.9-2.9-.9-6.1-.1-9 .8-2.4 2.1-4.7 4-6.6z"/></svg>