<svg xmlns="http://www.w3.org/2000/svg" viewBox="0 0 139.9 99.1" enable-background="new 0 0 139.9 99.1"><path fill="none" d="M0 0h139.9v99.1H0z"/><path d="M15.5 29.4h40.7c-.1 2-.1 4.1 0 6.1C42.6 42.8 29 50 15.5 57.2V29.4zM56 37c3.9-2.3 7.4-5.1 11.3-7.4-3.6 3-7.4 5.8-11.1 8.6 0 .6-.1 1.2-.1 1.7C42.5 48.5 29 57 15.5 65.6v-3.1C28.9 53.9 42.4 45.4 56 37zM18.9 69.6c17.3-13.1 34.7-26.1 51.8-39.4-4.6 4.5-9.6 8.6-14.3 12.9-.5.6-.3 1.5-.4 2.2-9.8 7.7-19.7 15.3-29.5 23.1-2 2.1-5.1.9-7.6 1.2zM77.5 31.1c2.5-.1 5.1-.5 7.4.5 2.2 1 2.5 4 1.4 5.9-.9 1.5-2.6 2.1-4.2 2.3-.7.2-1.2-.1-1.4-.8 1.2-.5 2.9-.9 3.1-2.4.2-1.2.3-2.8-.7-3.6-.7-.7-1.8-.4-2.7-.5v13h-2.9c0-4.9-.1-9.7 0-14.4zM67.9 37.5c2.3-2.3 4.6-4.6 7-6.7-6.2 7.3-12.6 14.5-18.9 21.8.2 5.7 0 11.3.1 17H34.6c11.2-10.7 22.3-21.3 33.3-32.1zM89.2 36.8c1.8-.7 3.7-1.4 5.6-1.2.9.1 1.7.8 1.8 1.7.2 2.3-.1 4.7.3 7 .4 0 1.3.1 1.8.1-1 1.6-3.4 2.1-4.7.5-1 .5-2.1 1.2-3.3 1-2.9-.2-3.2-5-.5-5.8 1.2-.5 2.5-.4 3.7-.4 0-.7-.1-1.3-.1-2-1.1-1.7-3.6.9-4.6-.9zm2.3 4.3c-.1 1.1 0 2.2.2 3.3.8-.1 1.6-.2 2.4-.4-.1-1.1-.1-2.3-.1-3.4-.9.2-1.7.3-2.5.5zM98.3 36.3l.7-.7c1.1.1 2.7-.3 3.3.9 1.1 2 1.8 4.2 2.5 6.3 1.5-1.9 1.8-4.5 1.5-6.8.7-.1 1.5-.2 2.2-.4.5 3.2-1.3 6-3 8.5-1.6 2.3-2.8 5-4.9 7-1 1.1-3 1.5-4.2.4 3.1-.8 4.9-3.6 6.6-6.1-1-2.6-1.9-5.2-3.1-7.6-.3-.7-1-1.1-1.6-1.5zM61.6 53.4c2.5-.4 5.7-.7 8 .8 2.3 2 1.2 6.1-1.4 7.3 1.3 2.3 2.6 4.6 5.2 5.6-1.3.7-3 .8-4.3.1-1.9-1.2-2.5-3.5-3.8-5.1-.2-.1-.7-.2-.9-.3v5.8h-2.9c0-4.7-.2-9.5.1-14.2zm2.7 1.2v5.8c1.1-.2 2.5-.1 3.1-1.3.5-1.2.5-2.7-.2-3.8-.7-.7-1.9-.5-2.9-.7zM97.2 59.3c1.1-1.3 2.6-2.2 4.2-2.7 0 .4.1 1.3.1 1.7h3c.3 1.8-1.9 1.3-3.1 1.6.1 2.1-.3 4.4.3 6.4 1 .4 2.1 0 3.2 0-1.2 1.4-3.1 1.8-4.9 1.7-.8 0-1.4-.8-1.4-1.6-.1-2.2 0-4.4 0-6.7-.3 0-1-.2-1.4-.4zM76.5 58.1c2-.7 4.6-.5 6 1.2 1.3 1.7 1.3 4 .7 6-1.4 3.9-8.3 3.8-9.4-.4-.7-2.4-.1-5.9 2.7-6.8zm.1 2.8c-.2 2-.5 4.4 1.2 5.8.7-.1 1.5-.1 2.2-.5.7-1.8.7-3.9.2-5.8-.4-1.7-3.6-1.5-3.6.5zM106.8 59.9c1.2-2.1 4.1-2.7 6.2-1.7 1.5.7 1.9 2.4 2.4 3.7-2 1-4.3.7-6.5 1.1.2 1.2.3 2.8 1.6 3.4 1.7.6 3.5-.7 5.2-.6-2.1 1.9-5.6 3.3-8.1 1.5-1.9-1.9-1.9-5.1-.8-7.4zm2.1 2h3.3c-.3-1-.4-2.8-1.9-2.6-1.2 0-1 1.8-1.4 2.6zM118.4 58.6c1.5-1.2 3.6-.8 5.4-.5l-.3 1.8c-1.3-.3-2.6-.6-3.9-.4-.4.8-.1 1.6.8 1.8 1.4.7 3.5 1 3.9 2.8.4 1.7-.9 3.1-2.3 3.8-1.7.7-3.6.2-5.3-.5.2-.4.5-1.3.7-1.8 1.4.7 2.9 1.1 4.4 1 0-.7.5-1.9-.5-2.2-1.3-.7-3.1-.9-4-2.3-.6-1.2 0-2.8 1.1-3.5zM86.1 58.3h2.8c.1 2.5-.2 5 .1 7.5.5 1.5 2.4.4 3.4 0v-7.5h2.8v9.3h-2.4c-.1-.3-.3-.8-.3-1.1-1.1.5-2.1 1.2-3.3 1.5-1.5.4-3.1-.9-3-2.5-.2-2.3-.1-4.8-.1-7.2z"/></svg>