<svg xmlns="http://www.w3.org/2000/svg" viewBox="0 0 139.9 99.1" enable-background="new 0 0 139.9 99.1"><path fill="none" d="M0 0h139.9v99.1H0z"/><path d="M63.3 53.4c-.3-.1-.8-.2-1.3-.3-.6-.1-1.2-.2-2-.2-.4 0-.9 0-1.4.1-.5.1-.8.1-1 .2v12h-3.9V51c.7-.3 1.7-.5 2.8-.7 1.1-.2 2.4-.3 3.7-.3h.9c.3 0 .7.1 1 .1.3 0 .7.1 1 .2.3.1.6.1.8.2l-.6 2.9zM70.3 45.9c0 .7-.2 1.2-.7 1.6-.5.4-1 .6-1.7.6s-1.2-.2-1.7-.6c-.5-.4-.7-.9-.7-1.6 0-.7.2-1.2.7-1.6.5-.4 1-.6 1.7-.6.6 0 1.2.2 1.7.6.5.4.7.9.7 1.6zm-.4 19.4H66v-15h3.9v15zM88.1 57.8c0 1.2-.2 2.2-.5 3.2s-.8 1.8-1.4 2.5c-.6.7-1.4 1.2-2.3 1.6-.9.4-2 .6-3.2.6-.8 0-1.5-.1-2.2-.3-.7-.2-1.2-.4-1.6-.6v5.8H73V50.8c.8-.2 1.8-.4 2.9-.5 1.2-.2 2.4-.3 3.6-.3 1.3 0 2.5.2 3.5.5 1 .4 1.9.9 2.7 1.6.7.7 1.3 1.5 1.7 2.5.5.9.7 2 .7 3.2zm-4 .1c0-1.5-.4-2.8-1.2-3.6-.8-.9-2-1.3-3.8-1.3H78c-.4 0-.8.1-1.2.2v8.6c.3.2.8.4 1.4.6.6.2 1.2.3 1.8.3 1.4 0 2.4-.4 3.1-1.3.7-.9 1-2.1 1-3.5zM105.4 57.8c0 1.2-.2 2.2-.5 3.2s-.8 1.8-1.4 2.5c-.6.7-1.4 1.2-2.3 1.6-.9.4-2 .6-3.1.6-.8 0-1.5-.1-2.2-.3-.7-.2-1.2-.4-1.6-.6v5.8h-3.9V50.8c.8-.2 1.8-.4 2.9-.5 1.1-.2 2.4-.3 3.6-.3 1.3 0 2.5.2 3.5.5 1 .4 1.9.9 2.7 1.6.7.7 1.3 1.5 1.7 2.5.4.9.6 2 .6 3.2zm-4 .1c0-1.5-.4-2.8-1.2-3.6-.8-.9-2-1.3-3.8-1.3h-1.1c-.4 0-.8.1-1.2.2v8.6c.3.2.8.4 1.4.6.6.2 1.2.3 1.8.3 1.4 0 2.4-.4 3.1-1.3.7-.9 1-2.1 1-3.5zM107.3 57.9c0-1.3.2-2.5.7-3.5.4-1 1-1.8 1.7-2.5s1.6-1.2 2.5-1.5c.9-.3 1.9-.5 2.9-.5 2.3 0 4.1.6 5.4 1.9 1.3 1.3 1.9 3.2 1.9 5.7v1.2h-11c.1 1.2.6 2.1 1.4 2.8.8.7 2.1 1 3.7 1 .9 0 1.8-.1 2.6-.2.8-.2 1.4-.3 1.8-.5.2 1.1.3 1.7.5 2.8-.2.1-.5.2-.9.3-.4.1-.8.2-1.3.3-.5.1-1 .2-1.5.2-.6.1-1.1.1-1.7.1-1.5 0-2.8-.2-3.8-.6-1.1-.4-2-.9-2.7-1.6-.7-.7-1.2-1.5-1.6-2.5-.5-.8-.6-1.8-.6-2.9zm11.2-1.6c0-.5-.1-.9-.2-1.4-.2-.4-.4-.8-.7-1.1-.3-.3-.6-.6-1.1-.7-.4-.2-.9-.3-1.5-.3s-1.1.1-1.6.3c-.4.2-.8.5-1.1.8-.3.3-.5.7-.7 1.1-.2.4-.3.9-.4 1.3h7.3zM130 54.9c1.4-1.8 2.1-2.8 3.6-4.6h4.1c-2.2 2.9-3.4 4.3-5.6 7.2 1.2 1.3 2.3 2.7 3.4 4 1.1 1.4 2 2.6 2.7 3.8H134c-.2-.3-.5-.7-.8-1.2-.3-.4-.6-.9-1-1.3-.4-.5-.7-.9-1.1-1.4-.4-.4-1-1.3-1.1-1.3-.3 0-1.5 1.6-2.2 2.6-.7.9-1.3 1.8-1.8 2.5h-3.9c.3-.6.7-1.2 1.2-1.8.5-.6 1-1.3 1.5-2s1.1-1.3 1.6-2c.6-.7 1.1-1.3 1.7-1.9-2.3-2.9-3.4-4.4-5.7-7.3h4.3c1.2 1.9 1.9 2.8 3.3 4.7zM40.4 53.3"/><path d="M13.3 74.1c-1.8 0-3.5-1.2-4.1-3L2 48.8c-.4-1.1-.3-2.3.3-3.3.5-1 1.4-1.8 2.5-2.1L31 35c2.3-.7 4.7.5 5.4 2.8l2.3 7.1-1.8.6-2.3-7.1c-.4-1.3-1.8-2-3.1-1.6L5.4 45.2c-.6.2-1.1.6-1.4 1.2-.3.6-.3 1.2-.2 1.8L11 70.5c.4 1.3 1.8 2 3.1 1.6l26.2-8.4c.6-.2 1.1-.6 1.4-1.2.3-.6.4-1.2.2-1.9l-2.3-7.1 1.8-.6 2.3 7.1c.4 1.1.3 2.3-.3 3.3-.5 1-1.4 1.8-2.5 2.1l-26.2 8.4c-.5.2-1 .3-1.4.3zM32 56.8c-1.5 0-2.8-1-3.2-2.4L27.7 51c-.6-1.8.4-3.7 2.1-4.3l7.3-2.3c.3-.1.7-.2 1-.2 1.5 0 2.8 1 3.2 2.4l1.1 3.4c.6 1.8-.4 3.7-2.1 4.3L33 56.6c-.3.1-.6.2-1 .2zM38.1 46c-.2 0-.3 0-.5.1l-7.3 2.3c-.8.3-1.3 1.2-1 2.1l1.1 3.4c.2.7.9 1.2 1.6 1.2.2 0 .3 0 .5-.1l7.2-2.3c.8-.3 1.3-1.2 1-2.1l-1.1-3.4c-.2-.7-.8-1.2-1.5-1.2zM33.3 53.6c-1.1 0-2.1-.7-2.4-1.7-.4-1.3.3-2.7 1.6-3.2.3-.1.5-.1.8-.1 1.1 0 2.1.7 2.4 1.7.4 1.3-.3 2.7-1.6 3.2-.3 0-.6.1-.8.1zm0-3.6c-.1 0-.2 0-.3.1-.6.2-.9.8-.7 1.3.2.5.8.9 1.3.7.6-.2.9-.8.7-1.3-.2-.5-.6-.8-1-.8zM42.9 33.7c.5-.1 1-.3 1.5-.4C42.6 26.6 36 24 31 25.4c.1.4.2.9.3 1.3.1.2.1.2.3.2.7-.2 1.4-.3 2.1-.3.4 0 .9 0 1.3.1.6.1 1.3.2 1.9.4.8.3 1.6.7 2.3 1.2.7.5 1.3 1 1.8 1.7.6.7 1.1 1.5 1.5 2.4.1.4.3.8.4 1.3zm-11.1-5.3c.1.5.3 1 .4 1.5 1.7-.4 3.3-.2 4.8.7 1.5.9 2.5 2.2 2.9 3.9.5-.1 1-.3 1.5-.4-.9-3.8-5-6.9-9.6-5.7zm5.1 6.8c.5-.1.9-.2 1.4-.4l.1-.1c-.2-.6-.4-1.1-.8-1.6s-.8-.9-1.4-1.2c-.6-.3-1.2-.6-1.8-.6h-1.2c-.2 0-.5.1-.7.1.1.5.3 1 .4 1.5.9-.2 1.7-.1 2.5.3.8.5 1.2 1.2 1.5 2z"/></svg>