<svg xmlns="http://www.w3.org/2000/svg" viewBox="0 0 139.9 99.1" enable-background="new 0 0 139.9 99.1"><path fill="none" d="M0 0h139.9v99.1H0z"/><path opacity=".2" d="M14.5 53.1c-.4-.6-.9-1.1-1.5-1.4-.2-.1-.4-.3-.5-.5-.3-.4-.3-1 0-1.4s.7-.7 1.2-.7c.3 0 .5.1.7.2.6.4 1.3.6 2 .6 1.3 0 2.5-.7 3.1-1.9.6-1.1.6-2.5 0-3.6-.7-1.1-1.9-1.8-3.2-1.8-1.3 0-2.5.7-3.1 1.9-.3.6-.5 1.3-.5 2 0 .3-.1.5-.2.7-.2.4-.7.7-1.2.7-.3 0-.5-.1-.7-.2-.2-.1-.4-.3-.5-.5-.1-.2-.2-.5-.2-.7 0-.7-.1-1.4-.5-2-.7-1.1-1.9-1.8-3.2-1.8-1.3 0-2.5.7-3.1 1.9-.6 1.1-.6 2.5 0 3.6C3.8 49.3 5 50 6.3 50c.7 0 1.4-.2 1.9-.6.2-.1.5-.2.7-.2.3 0 .5.1.7.2.2.1.4.3.5.5.3.4.3 1 0 1.4-.1.2-.3.4-.5.5-.6.3-1.1.8-1.4 1.4-.6 1.1-.6 2.5 0 3.6.7 1.1 1.9 1.8 3.2 1.8 1.3 0 2.5-.7 3.1-1.9.6-1.1.6-2.5 0-3.6z"/><path opacity=".4" d="M15.4 52.1c-.5-.5-1.1-.8-1.8-.9-.2-.1-.5-.2-.6-.4-.4-.4-.5-.9-.4-1.4.1-.5.5-.9 1-1 .2-.1.5-.1.7 0 .7.2 1.4.2 2 0 1.2-.4 2.2-1.4 2.5-2.6.3-1.3-.1-2.6-1-3.5-.9-.9-2.3-1.2-3.5-.8-1.2.4-2.2 1.4-2.5 2.6-.2.7-.1 1.4.1 2 .1.2.1.5 0 .8-.1.5-.5.9-1 1-.2.1-.5.1-.7 0-.2-.1-.5-.2-.7-.4-.2-.2-.3-.4-.4-.6-.2-.7-.5-1.3-1-1.8-.9-.9-2.3-1.2-3.5-.8-1.2.4-2.2 1.4-2.5 2.6-.3 1.3.1 2.6 1 3.5.9.9 2.3 1.2 3.5.8.7-.2 1.3-.6 1.7-1.1.2-.1.4-.2.7-.3.2-.1.5-.1.7 0 .2.1.5.2.7.4.4.4.5.9.4 1.4-.1.3-.2.5-.4.7-.5.5-.8 1.1-1 1.8-.3 1.3.1 2.6 1 3.5.9.9 2.3 1.2 3.5.8 1.2-.4 2.2-1.4 2.5-2.6.3-1.4-.1-2.8-1-3.7z"/><path d="M51.5 41.1H54c0 4.2-.1 8.5 0 12.7-.8 0-1.6 0-2.5.1V41.1zM27.8 41.5c.9-.8 2.6-.1 2.4 1.2 0 1-1.3 1.6-2.1 1.1-.9-.5-1-1.7-.3-2.3zM73.6 41.4c.8-.6 2.2-.2 2.3.9.2.9-.7 1.8-1.7 1.6-1.1-.1-1.6-1.8-.6-2.5zM65.6 42.4c1.7-1.1 3.8-.8 5.6-.4v2.6c-1.1-.6-2.5-1.1-3.7-.6-.7.2-1.1 1.2-.5 1.8 1 1 2.6 1.2 3.6 2.3 1.6 1.5 1.4 4.7-.7 5.6-1.8.8-4 .7-5.8-.1v-2.7c1.2.8 2.6 1.5 4.1 1 .7-.2 1.2-1.2.6-1.7-.9-1.1-2.5-1.3-3.6-2.2-1.6-1.5-1.5-4.5.4-5.6zM34.4 46.5c.7-.8 1.5-1.5 2.6-1.5 1.5-.1 2.7 1.1 2.9 2.5.5 2.1.3 4.8-1.6 6.1-1.3.9-3 .5-3.9-.7.1 1.6 0 3.3 0 4.9H32V45.2h2.5c-.1.4-.1 1-.1 1.3zm1 .8c-1.1.7-1.1 2.2-.9 3.3.1 1 1.2 1.9 2.2 1.3 1.2-.7 1.2-2.3 1-3.4-.2-1-1.4-1.8-2.3-1.2zM41.7 45.3h2.5v1.2c.7-.8 1.7-1.6 2.8-1.4 1.5.1 2.5 1.4 2.8 2.8.4 2 .1 4.4-1.5 5.7-1.2 1-3.1.7-4.1-.5V58h-2.4c-.1-4.3 0-8.5-.1-12.7zm3.3 2.1c-1 .7-1 2.2-.9 3.3.1 1.1 1.4 1.9 2.3 1.2 1.1-.8 1.1-2.4.8-3.6-.1-1-1.4-1.5-2.2-.9zM56.7 46.2c1.4-1.6 4.3-1.6 5.5.2.8 1.1.8 2.6.8 4h-5.2c.2.6.3 1.3.9 1.6 1.1.6 2.5.2 3.6-.3v1.9c-1.9.8-4.6 1-6-.9-1.2-1.9-1.1-4.7.4-6.5zm1.1 2.5c1 .1 2.1.1 3.2 0-.3-.6-.4-1.7-1.2-1.7-1.2-.3-1.7.9-2 1.7zM80.1 46.5c.7-.9 1.8-1.7 3-1.5 1.2.1 2 1.3 2.1 2.4.2 2.1 0 4.3.1 6.4h-2.5v-5.1c0-.6-.1-1.4-.8-1.7-.9-.5-1.9.5-1.9 1.4-.1 1.8 0 3.6 0 5.3h-2.4c-.1-2.9 0-5.8-.1-8.7h2.5c.1.6 0 1.2 0 1.5zM88.5 45.6c1.2-.9 3.1-.7 4 .5 0-.2.1-.6.1-.9.8-.1 1.6 0 2.4 0-.1 2.7 0 5.4 0 8.1 0 1.5-.7 3.1-2 3.9-1.6 1-3.7.8-5.4.3v-2.3c1.2.6 2.8 1.1 4 .3.9-.6 1-1.8 1.1-2.8-.8.8-1.7 1.6-2.9 1.4-1.7-.1-2.8-1.6-3-3.1-.2-1.9.1-4.1 1.7-5.4zm1.7 1.8c-1.3 1.1-1.4 3.9.3 4.7 1.6.5 2.3-1.5 2.1-2.8.1-1.3-1.2-2.8-2.4-1.9zM97.1 45.7c1.5-.5 3.2-1 4.7-.3 1.1.5 1.6 1.7 1.6 2.8.1 1.9 0 3.8 0 5.7h-2.3v-1.2c-.7.9-1.7 1.7-2.9 1.4-2.4-.4-2.6-4.2-.5-5.1 1.1-.5 2.3-.5 3.5-.7-.3-2.2-3-1.4-4.2-.5.1-.7.1-1.4.1-2.1zm1.6 5c-.5.8.4 1.8 1.3 1.5 1.1-.3 1.2-1.5 1.3-2.4-.9.3-2.1 0-2.6.9zM107.8 46.5c.6-.6 1.2-1.4 2.2-1.5 1.5-.3 2.9.8 3.3 2.2.6 2.1.4 4.8-1.4 6.2-1.3 1-3.1.7-4.1-.5.1 1.6 0 3.3 0 4.9h-2.4V45.2h2.5c-.1.4-.1 1-.1 1.3zm1 .8c-1.1.7-1.1 2.2-.9 3.3.1 1.1 1.4 1.9 2.4 1.2 1-.8 1-2.4.7-3.6-.2-.9-1.4-1.4-2.2-.9zM117.4 45.3c1.6-.5 3.7-.3 4.8 1.1 1.3 1.6 1.3 4 .4 5.7-1.4 2.8-6.1 2.7-7.4-.1-1.1-2.3-.5-5.8 2.2-6.7zm.9 1.9c-2 .9-1.6 5.3 1 4.8 1.5-.4 1.4-2.3 1.3-3.5-.1-1-1.3-1.7-2.3-1.3zM127.1 46.9c.5-1.1 1.5-1.9 2.7-1.7v2.5c-.9-.3-2-.2-2.4.7-.6 1.8-.2 3.7-.3 5.6h-2.5c.1-2.9 0-5.8 0-8.6h2.4c.2.4.2.9.1 1.5zM132 46.1c1.4-1.4 4.2-1.3 5.4.4.8 1.1.7 2.6.8 4H133c.3.5.4 1.3 1 1.5 1.1.6 2.4.2 3.5-.3v1.9c-2 .9-4.9 1-6.2-1-1.2-2.1-1-4.9.7-6.5zm.9 2.6h3.1c-.2-.7-.3-1.7-1.2-1.8-1.1-.2-1.6 1-1.9 1.8zM21.3 45.3h2.4v1.5c.5-1.1 1.5-1.9 2.7-1.7v2.5c-1-.3-2.2-.1-2.5 1-.4 1.7-.1 3.6-.2 5.4h-2.4v-8.7zM27.5 45.3h2.4V54h-2.5c.2-3 .1-5.8.1-8.7zM73.3 53.9v-8.7h2.4v8.6c-.8.1-1.6.1-2.4.1zM16 51.1c-.6-.4-1.3-.5-2-.5-.3 0-.5-.1-.7-.2-.4-.3-.7-.7-.7-1.2s.3-1 .7-1.2c.2-.1.5-.2.7-.2.7 0 1.4-.1 2-.5 1.1-.6 1.8-1.8 1.8-3.1s-.7-2.5-1.8-3.1c-1.1-.6-2.5-.6-3.6 0s-1.8 1.8-1.8 3.1c0 .7.2 1.4.6 1.9.1.2.2.5.2.7 0 .5-.3 1-.7 1.2-.2.1-.5.2-.7.2-.3 0-.5-.1-.7-.2-.2-.1-.4-.3-.5-.5-.3-.6-.8-1.1-1.4-1.5-1.1-.6-2.5-.6-3.6 0S2 47.8 2 49.1s.7 2.5 1.8 3.1c1.1.6 2.5.6 3.6 0 .6-.4 1.1-.9 1.4-1.5.1-.2.3-.4.5-.5.2-.1.5-.2.7-.2.3 0 .5.1.7.2.4.3.7.7.7 1.2 0 .3-.1.5-.2.7-.4.6-.6 1.2-.6 1.9 0 1.3.7 2.5 1.8 3.1 1.1.6 2.5.6 3.6 0s1.8-1.8 1.8-3.1c0-1.1-.7-2.2-1.8-2.9z"/></svg>