<svg xmlns="http://www.w3.org/2000/svg" viewBox="0 0 139.9 99.1" enable-background="new 0 0 139.9 99.1"><path fill="none" d="M0 0h139.9v99.1H0z"/><path d="M33.6 56.8V43.3h3.9v1.2c.3-.3.6-.6 1-.8.7-.4 1.5-.7 2.5-.7.2 0 .4 0 .6.1.2 0 .4.1.6.1l.3.1v3.9L42 47c-.3-.1-.5-.1-.7-.2-.2 0-.5-.1-.7-.1-.7 0-1.2.1-1.6.4-.4.2-.7.5-.9.8-.2.3-.4.6-.4.9-.1.4-.1.6-.1.7v7.2h-4v.1zM44.3 56.8V43.3h3.9v13.5h-3.9zM44.2 39.4c0-.5.2-1 .6-1.3.4-.4.9-.6 1.4-.6.6 0 1.1.2 1.5.5.4.4.6.8.6 1.4 0 .5-.2 1-.6 1.4-.4.4-.9.5-1.5.5s-1.1-.2-1.4-.6c-.4-.4-.6-.8-.6-1.3zM50.8 62.8V43.3h3.8v1.2c.4-.4.9-.7 1.4-1 .8-.4 1.7-.6 2.7-.6 1 0 2 .2 2.8.5.8.4 1.5.9 2.1 1.5.6.6 1 1.4 1.3 2.3.3.9.4 1.8.4 2.7 0 1-.2 1.9-.5 2.8-.3.9-.8 1.6-1.3 2.2-.6.6-1.3 1.1-2.1 1.5-.8.4-1.7.6-2.6.6-.6 0-1.2-.1-1.7-.2s-.9-.3-1.3-.5-.7-.4-1-.7l-.1-.1v7.2h-3.9zM58 46.6c-.5 0-1 .1-1.4.3-.4.2-.8.4-1.1.8-.3.3-.5.7-.7 1.1-.2.4-.2.9-.2 1.3s.1.9.2 1.3c.2.4.4.8.7 1.1.3.3.6.6 1.1.8.4.2.9.3 1.4.3.5 0 1-.1 1.4-.3.4-.2.8-.4 1.1-.8.3-.3.5-.7.7-1.1.2-.4.2-.9.2-1.3s-.1-.9-.2-1.3c-.2-.4-.4-.8-.7-1.1-.3-.3-.6-.6-1.1-.8-.5-.2-.9-.3-1.4-.3zM66.9 62.8V43.3h3.8v1.2c.4-.4.9-.7 1.4-1 .8-.4 1.7-.6 2.7-.6 1 0 2 .2 2.8.5.8.4 1.5.9 2.1 1.5.6.6 1 1.4 1.3 2.3.3.9.4 1.8.4 2.7 0 1-.2 1.9-.5 2.8-.3.9-.8 1.6-1.3 2.2-.6.6-1.3 1.1-2.1 1.5-.8.4-1.7.6-2.6.6-.6 0-1.2-.1-1.7-.2s-.9-.3-1.3-.5-.7-.4-1-.7l-.1-.1v7.2h-3.9zM74 46.6c-.5 0-1 .1-1.4.3-.4.2-.8.4-1.1.8-.3.3-.5.7-.7 1.1-.2.4-.2.9-.2 1.3s.1.9.2 1.3c.2.4.4.8.7 1.1.3.3.6.6 1.1.8.4.2.9.3 1.4.3.5 0 1-.1 1.4-.3.4-.2.8-.4 1.1-.8.3-.3.5-.7.7-1.1.2-.4.2-.9.2-1.3s-.1-.9-.2-1.3c-.2-.4-.4-.8-.7-1.1-.3-.3-.6-.6-1.1-.8-.4-.2-.8-.3-1.4-.3zM83 36.2h3.9V57H83zM95.8 57.1c-1 0-2-.2-2.8-.5-.9-.3-1.7-.8-2.3-1.4-.7-.6-1.2-1.4-1.6-2.2-.4-.9-.6-1.8-.6-2.9 0-1.1.2-2 .6-2.9.4-.9.9-1.6 1.6-2.2.7-.6 1.4-1.1 2.3-1.4.9-.3 1.8-.5 2.8-.5.9 0 1.8.2 2.6.5s1.5.8 2 1.4c.6.6 1 1.4 1.3 2.3.3.9.5 1.9.5 3.1v1.3h-9.6c.1.7.4 1.2.9 1.6.6.5 1.2.7 2.1.7.7 0 1.3-.1 1.8-.4.5-.3.9-.7 1.3-1.1l.2-.3 2.9 2.2-.2.3c-.8 1-1.7 1.7-2.6 2.1-1.1.1-2.1.3-3.2.3zm2.4-8.7c-.1-.7-.3-1.2-.7-1.6-.5-.5-1.2-.7-2.1-.7-.9 0-1.5.2-2 .7-.4.4-.7.9-.8 1.6h5.6zM24.5 52.6c-1-.6-2.1-.8-3.2-.8-.4 0-.8-.1-1.1-.3-.7-.4-1.1-1.2-1.1-2s.4-1.6 1.1-2c.3-.2.7-.3 1.1-.3 1.1.1 2.2-.2 3.2-.8 1.8-1 2.9-3 2.9-5 0-2.1-1.1-4-2.9-5-1.8-1-4-1-5.8 0-1.8 1-2.9 3-2.9 5 0 1.1.3 2.2.9 3.1.2.3.3.8.3 1.2 0 .8-.4 1.6-1.1 2-.3.2-.7.3-1.1.3-.4 0-.8-.1-1.1-.3-.4-.2-.7-.5-.9-.9-.5-1-1.3-1.8-2.2-2.3-1.8-1-4-1-5.8 0-1.8 1-2.9 3-2.9 5 0 2.1 1.1 4 2.9 5 1.8 1 4 1 5.8 0 1-.6 1.7-1.4 2.2-2.3.2-.4.5-.7.9-.9.3-.2.7-.3 1.1-.3.4 0 .8.1 1.1.3.7.4 1.1 1.2 1.1 2 0 .4-.1.8-.3 1.2-.6.9-.9 2-.9 3.1 0 2.1 1.1 4 2.9 5 1.8 1 4 1 5.8 0 1.8-1 2.9-3 2.9-5s-1.1-3.9-2.9-5zM105 43.1c1-2.1 3-3.7 5.3-4.2 3.2-.7 6.5-.3 9.5 1 0 1.7 0 3.3-.1 4.9-2-1.4-4.2-3.2-6.9-2.5-3.8 1-4.7 6.2-2.9 9.2 1.2 2.2 4.2 2.8 6.4 1.8 1.2-.6 2.2-1.5 3.5-2.1v4.7c-3.4 1.6-7.4 2.1-10.9.6-2.6-1.1-4.4-3.7-4.7-6.5-.3-2.2-.3-4.7.8-6.9zM121.5 38.8c1.9.1 5.6 0 5.6 0l6.5 10.1V38.8h4.4v18.4h-4.7l-7.4-12-.1 12h-4.4c.1-6.1.1-12.3.1-18.4z"/></svg>