<svg xmlns="http://www.w3.org/2000/svg" viewBox="0 0 139.9 99.1" enable-background="new 0 0 139.9 99.1"><path fill="none" d="M0 0h139.9v99.1H0z"/><path d="M8.1 40.7c-.3 3.4-.5 6.8.5 10.1 0-4.7 1.1-9.7 4.3-13.3 2.1-2.4 5-4 8-5.1 2.8-1 5.8-1 8.8-1.3-3-1-6.2-1.2-9.4-1.5 3.1-.7 6.2-1.3 9.3-1.2-3-1.9-6.8-2.2-10.3-1.8-6.9 1.1-13 5.7-16.3 11.7 2.2-.9 4.3-1.9 6.5-2.9-.6 1.8-1.2 3.5-1.4 5.3zM44.5 40.1c-3.5-4-8.1-6.8-13.1-8.3 4.8 2.7 9.2 6.8 10.3 12.5 1.4 5.3-.5 10.6-2.7 15.3 2.3-2.3 4.2-5 5.8-7.9-.8 3.2-2 6.4-3.6 9.4 4.1-2.5 6.3-7 7.3-11.5 1-5.7-.6-11.7-3.4-16.7-.2 2.5-.4 4.8-.6 7.2zM16 61.5c-3.3-2.3-5.4-5.8-7.6-9 .8 3.4 1.9 6.8 3.8 9.8-2.2-2.7-4.8-5.3-6.1-8.6-.3 4.7 2 9.2 5.4 12.5 4.2 4.1 10 6.3 15.8 6.5-1.8-1.5-3.7-2.9-5.6-4.4 5.1-.9 10.2-2.9 14.1-6.4-2.5 1-5 2.1-7.6 2.5-4.2.7-8.7-.4-12.2-2.9zM39.8 44.3c-.9-3.9-3.7-7.4-7.3-9.2-3.1-1.8-6.8-2-10.2-1.4-3.8.8-7.1 3.2-9.3 6.4-2.5 3.9-3 9-1.3 13.3 2 5.5 7.6 9.4 13.5 9.5 5.2.1 10.5-2.8 13.1-7.3 2-3.3 2.4-7.5 1.5-11.3zm-4.3 13.3c-1.3 1.4-3.2 1.9-5 1.5-1.8-.4-3.3-1.8-3.8-3.6-.3-1-.3-2 0-2.9.1-.4.1-.7 0-1.1-.2-.7-.8-1.2-1.5-1.4-.4-.1-.7-.1-1.1 0-.3.1-.7.3-.9.6-.3.3-.4.6-.5 1-.2 1-.6 1.9-1.3 2.6-1.3 1.4-3.2 1.9-5 1.5-1.8-.4-3.3-1.8-3.8-3.6s-.1-3.7 1.2-5.1c1.3-1.4 3.2-1.9 5-1.5 1 .2 1.9.7 2.5 1.4.3.3.6.4 1 .5.4.1.7.1 1.1 0 .3-.1.7-.3.9-.6.5-.5.7-1.3.5-2-.1-.4-.3-.7-.6-.9-.7-.6-1.3-1.5-1.6-2.4-.5-1.8-.1-3.7 1.2-5.1 1.3-1.4 3.2-1.9 5-1.5 1.8.4 3.3 1.8 3.8 3.6s.1 3.7-1.2 5.1c-.7.7-1.6 1.3-2.5 1.5-.3.1-.7.3-.9.6-.5.5-.7 1.3-.5 2 .2.7.8 1.2 1.5 1.4.4.1.7.1 1.1 0 .9-.3 1.9-.4 2.9-.2 1.8.4 3.3 1.8 3.8 3.6.5 1.7 0 3.6-1.3 5z"/><circle cx="4" cy="42.9" r="2.2"/><circle cx="30.9" cy="69.5" r="2.2"/><circle cx="40.5" cy="31.6" r="2.2"/><path d="M85.6 40.2h-1v11.4h2V40.1h-.2c-.3.1-.5.1-.8.1zM116.5 46c-.1-1.4-1.4-2.6-2.9-2.6h-.3c-.7 0-1.5.3-2.1.9v-4.1h-2v11.5h2V46.4c.4-.5 1.1-1.1 2-1.1.6 0 1.3.4 1.3 1v5.4h2v-2.3c.1-1.2.1-2.3 0-3.4zM107.4 48.7c-.2-.1-.3-.3-.4-.4l-.1-.2-.1.2c-.8.8-1.8 1.4-2.9 1.6-.3.1-.6.1-.8.1-1 0-1.9-.4-2.6-1-1.4-1.4-1.4-4 0-5.4.6-.7 1.5-1 2.5-1h.2c1.2.1 2.4.6 3.3 1.4l.1.1 1.5-1.5-.1-.1c-1.3-1.2-3.1-1.9-5-1.9h-.6c-1.8.1-3.4 1.1-4.3 2.6-1.4 2.2-1.1 5.2.7 7 1 1.1 2.6 1.7 4.3 1.7h.2c1.8 0 3.6-.8 5-2.1l.1-.1-.1-.1c-.3-.4-.6-.6-.9-.9zM58.7 47.3c1-.4 1.7-1.1 2-2 .4-1 .2-2.3-.5-3.1-.7-.8-1.8-1.3-3.1-1.3h-6v.2c-.1.4 0 .7 0 1.1v9.4h2.1v-4h3.3l.8 1.4c.5.8.9 1.7 1.4 2.5l.1.1h2.5l-.3-.3c-.8-1.3-1.5-2.7-2.3-4zm-5.6-4.4h4c.4 0 .8.2 1.1.5.3.3.4.6.4.9 0 .7-.7 1.4-1.5 1.4h-4v-2.8zM70.1 43.3c-.3 0-.5 0-.8.1-.6.1-1.2.5-1.6.9 0-.2 0-.4-.1-.6v-.2H65.7v.2c.2.7.2 1.5.2 2.2v9l2-1.1v-3c.6.5 1.2.8 1.8.9h.4c1.1 0 2.2-.5 2.9-1.4 1.1-1.3 1.3-3.4.5-5.1-.6-1-2-1.9-3.4-1.9zm.5 6.6c-.2.1-.5.1-.7.1-.8 0-1.6-.6-2-.9v-3c.5-.6 1.3-1 2-1h.3c.9.2 1.4 1.1 1.5 1.8.3 1.2-.1 2.6-1.1 3zM79.5 43.3c-.3 0-.5 0-.8.1-.6.1-1.2.5-1.6.9 0-.2-.1-.8-.1-.8H75.1v.2c.1.5.2 1.1.2 1.8v9.4l2-1.1v-3c.6.5 1.2.8 1.8.9h.4c1.1 0 2.1-.5 2.8-1.2 1.2-1.3 1.5-3.4.7-5.1-.6-1.2-2-2.1-3.5-2.1zm-2.2 2.8c.5-.6 1.3-1 2-1h.3c.9.2 1.4 1.1 1.5 1.8.2 1-.1 2.3-1.1 2.8-.1.3-.4.3-.7.3-.7 0-1.5-.4-2-.9v-3zM91.9 43.3c-1.1 0-2.1.4-2.8 1.1-1.6 1.5-1.8 4.2-.5 6 .7.8 1.7 1.4 2.9 1.4h.2c1.5 0 3-.5 3.9-1.5l.1-.1-.2-.1c-.4-.3-.7-.7-1.1-1l-.1-.1c-.6.6-1.5 1-2.3 1-.4 0-.8-.1-1.2-.3-.6-.3-.9-1-1.1-1.6h6.2v-.2c0-.9 0-2.2-.8-3.1-.7-.9-1.9-1.5-3.2-1.5zm-.6 1.8c.2 0 .3-.1.5-.1.9 0 1.8.5 1.9 1.4h-3.9c.3-.4.7-1.1 1.5-1.3zM128.8 46c-.1-1.6-1.6-2.7-3-2.7h-.2c-1 0-1.8.6-2.3 1.1 0-.2-.1-.9-.1-.9h-2l.1.2c.2.7.2 1.5.2 2.2v5.6h2V46.2c.6-.7 1.2-1.1 1.9-1.1h.1c.6 0 1.3.4 1.3 1v5.4h2V46zM138 51.4c-.1-.5-.2-.9-.2-1.2v-4.6c0-1.1-1-1.7-1.7-1.9-.6-.2-1.2-.3-1.9-.3-1.3 0-2.6.3-3.7 1l-.2.1.1.2c.2.4.4.9.6 1.4l.1.2.2-.1c.9-.6 2-.9 3-.9h.1c.5 0 1.1.2 1.4.6.1.3.1.6.1.9v.1c-.6-.3-1.3-.4-2.2-.4h-.5c-.8.1-2.2.3-2.8 1.4-.6 1-.3 2.4.6 3.2.6.5 1.5.8 2.3.8 1 0 2-.3 2.7-.9 0 .2.1.4.1.6v.1h2l-.1-.3zm-2.3-2.2c-.7.5-1.5.8-2.2.8-.3 0-.6-.1-.9-.2-.2-.1-.5-.3-.6-.6-.1-.2-.1-.5 0-.7.2-.3.7-.5 1.4-.6h.5c.7 0 1.4.2 2 .5v.2c-.1.3-.1.5-.2.6zM63.4 40.1c-.2 0-.3 0-.4.1-.3.1-.6.4-.7.7-.1.3-.1.6.1.9.2.4.6.6 1.1.6.5 0 1.1-.3 1.2-.9.1-.3 0-.6-.2-.9-.3-.3-.7-.5-1.1-.5zM63.5 43.6h-1.1v8h2v-8h-.9zM118.9 40.2c-.2 0-.3 0-.4.1-.3.1-.6.4-.7.7-.1.3-.1.6.1.9.2.4.6.6 1.1.6.5 0 1.1-.3 1.2-.9.1-.3 0-.6-.2-.9-.3-.4-.7-.5-1.1-.5zM119 43.6h-1.1v8h2v-8h-.9z"/></svg>