<svg xmlns="http://www.w3.org/2000/svg" viewBox="0 0 139.9 99.1" enable-background="new 0 0 139.9 99.1"><path fill="none" d="M0 0h139.9v99.1H0z"/><path d="M36.9 61.3H33v-2.8h3.8v2.8zm-.1 12.9h-3.6V62.9h3.6v11.3zM52 68.4c0 .9-.1 1.8-.4 2.5-.3.8-.7 1.4-1.1 1.9-.5.5-1 .9-1.6 1.2-.6.3-1.3.4-2 .4-.6 0-1.2-.1-1.6-.2-.4-.1-.9-.3-1.4-.6v4.7h-3.6V62.9h3.6v1.2c.6-.4 1.1-.8 1.7-1.1s1.2-.4 2-.4c1.4 0 2.5.5 3.3 1.6.7 1 1.1 2.4 1.1 4.2zm-3.8.1c0-1.1-.2-1.9-.6-2.4-.4-.5-1-.7-1.8-.7-.3 0-.7.1-1.1.2-.4.1-.7.3-1 .4v5.7c.2.1.5.2.8.2h.8c1 0 1.7-.3 2.1-.8.6-.6.8-1.5.8-2.6zM66.4 68.4c0 .9-.1 1.8-.4 2.5-.3.8-.7 1.4-1.1 1.9-.5.5-1 .9-1.6 1.2-.6.3-1.3.4-2 .4-.6 0-1.2-.1-1.6-.2-.4-.1-.9-.3-1.4-.6v4.7h-3.6V62.9h3.6v1.2c.6-.4 1.1-.8 1.7-1.1s1.2-.4 2-.4c1.4 0 2.5.5 3.3 1.6.7 1 1.1 2.4 1.1 4.2zm-3.7.1c0-1.1-.2-1.9-.6-2.4-.4-.5-1-.7-1.8-.7-.3 0-.7.1-1.1.2-.4.1-.7.3-1 .4v5.7c.2.1.5.2.8.2h.8c1 0 1.7-.3 2.1-.8.5-.6.8-1.5.8-2.6zM72.7 74.2H69V58.6h3.6v15.6zM87.2 69.2h-8.3c.1.9.4 1.6 1 2 .6.5 1.5.7 2.7.7.8 0 1.5-.1 2.2-.4.7-.3 1.3-.6 1.7-.9h.5v2.9c-.8.3-1.6.6-2.3.7-.7.1-1.5.2-2.4.2-2.3 0-4-.5-5.2-1.5-1.2-1-1.8-2.5-1.8-4.4 0-1.9.6-3.3 1.7-4.4 1.1-1.1 2.7-1.6 4.7-1.6 1.8 0 3.2.5 4.2 1.4.9.9 1.4 2.3 1.4 4v1.3zm-3.6-2.1c0-.8-.2-1.3-.6-1.7-.4-.4-.9-.6-1.7-.6-.7 0-1.3.2-1.7.5-.5.4-.7.9-.8 1.7h4.8zM82.5 57.1h-3.6v-5.6c0-.5 0-.9-.1-1.4 0-.5-.1-.8-.2-1-.1-.2-.3-.4-.6-.5-.3-.1-.6-.2-1.1-.2-.3 0-.7.1-1 .2-.3.1-.7.3-1.1.5v8h-3.6V45.8h3.6V47c.6-.5 1.3-.9 1.9-1.2.6-.3 1.3-.4 2-.4 1.2 0 2.2.4 2.9 1.1.7.7 1 1.8 1 3.2v7.4zM89.6 44.2h-3.8v-2.8h3.8v2.8zm-.1 12.9h-3.6V45.8h3.6v11.3zM104.5 51.4c0 1.9-.5 3.3-1.6 4.4-1.1 1.1-2.6 1.6-4.6 1.6s-3.5-.5-4.6-1.6c-1.1-1.1-1.6-2.5-1.6-4.4 0-1.9.5-3.3 1.6-4.4 1.1-1.1 2.6-1.6 4.6-1.6 2 0 3.5.5 4.6 1.6 1 1.1 1.6 2.6 1.6 4.4zm-4.5 2.8c.2-.3.4-.6.5-1 .1-.4.2-1 .2-1.7s-.1-1.2-.2-1.7c-.1-.4-.3-.8-.5-1.1-.2-.3-.5-.5-.8-.6-.2-.1-.6-.1-.9-.1s-.7 0-.9.1c-.3.1-.5.3-.8.6-.2.3-.4.6-.5 1.1-.1.5-.2 1-.2 1.7 0 .6.1 1.2.2 1.6.1.5.3.8.5 1.1.2.3.5.5.8.6.3.1.6.2 1 .2.3 0 .6-.1.9-.2.2-.2.5-.3.7-.6zM118.4 57.1h-3.6v-5.6c0-.5 0-.9-.1-1.4 0-.5-.1-.8-.2-1-.1-.2-.3-.4-.6-.5-.3-.1-.6-.2-1.1-.2-.3 0-.7.1-1 .2-.3.1-.7.3-1.1.5v8h-3.6V45.8h3.6V47c.6-.5 1.3-.9 1.9-1.2.6-.3 1.3-.4 2-.4 1.2 0 2.2.4 2.9 1.1.7.7 1 1.8 1 3.2v7.4z"/><path d="M71.2 57.1H59.6v-4c-2.2 1.6-4.1 2.9-5.9 3.7-1.8.9-3.9 1.3-6.4 1.3-4 0-7.1-1.2-9.3-3.5-2.2-2.3-3.2-5.7-3.2-10.2V20.8h11.7v18c0 1.8.1 3.4.2 4.6.1 1.2.4 2.2.8 3 .4.8 1 1.4 1.9 1.7s2 .5 3.5.5c1 0 2.1-.2 3.3-.5.2-.1.5-.3.7-.5 1.9-2.3 2.8-5.3 2.8-8.3V20.8h11.7v36.3zM48 48.9h-1c-.5-.2-1.3-.3-2.4-.4-1.1-.1-2-.1-2.8-.1-1.7 0-3.1.1-4.4.3-2.4.4-4.1 2.5-4.1 4.9v20.7H21.4V37.7h11.8v5.4c2.6-2.2 4.8-3.7 6.7-4.4 1.9-.7 3.7-1.1 5.3-1.1h1.4c.5 0 1 .1 1.4.1v11.2z" opacity=".6"/><path d="M47.4 46.4c-.4-.8-.7-1.8-.8-3-.1-1.2-.2-2.8-.2-4.6v-1.2h-1.2c-1.6 0-3.4.4-5.3 1.1-1.5.6-3.3 1.6-5.2 3.2v2.6c0 1.9.2 3.6.6 5.1.6-.4 1.3-.7 2-.8 1.3-.2 2.8-.3 4.4-.3.7 0 1.7 0 2.8.1 1.1.1 1.9.2 2.4.4h1v-1.6c-.1-.4-.3-.7-.5-1z"/></svg>