<svg xmlns="http://www.w3.org/2000/svg" viewBox="0 0 139.9 99.1" enable-background="new 0 0 139.9 99.1"><path fill="none" d="M0 0h139.9v99.1H0z"/><path d="M2 37.4h3.6c.4 0 .7.1.9.3s.4.4.5.7l3.9 13.8c.1.3.2.7.3 1.1.1.4.2.8.2 1.3.1-.4.2-.9.3-1.3.1-.4.2-.8.3-1.1l4.5-13.8c.1-.2.3-.5.5-.7s.6-.3.9-.3h1.3c.4 0 .7.1.9.3.2.2.4.4.5.7l4.5 13.8c.2.7.4 1.4.6 2.3.1-.4.2-.8.2-1.2.1-.4.2-.7.2-1.1L30 38.4c.1-.3.2-.5.5-.7.3-.2.6-.3.9-.3h3.4l-7.1 23h-3.9l-5-15.7c-.1-.2-.1-.4-.2-.7-.1-.2-.1-.5-.2-.7-.1.3-.1.5-.2.7-.1.2-.1.5-.2.7l-5 15.7H9.1L2 37.4zM41.9 39.3c0 .3-.1.7-.2 1s-.3.6-.5.8-.5.4-.8.5c-.3.1-.6.2-1 .2-.3 0-.7-.1-1-.2-.3-.1-.6-.3-.8-.5s-.4-.5-.5-.8c-.1-.3-.2-.6-.2-1 0-.3.1-.7.2-1 .1-.3.3-.6.5-.8s.5-.4.8-.5.6-.2 1-.2c.3 0 .7.1 1 .2s.6.3.8.5.4.5.5.8.2.7.2 1zm-.6 4.8v16.3h-3.9V44.1h3.9zM55.5 47.3c-.1.2-.2.3-.3.4-.1.1-.3.1-.4.1-.2 0-.4-.1-.6-.2-.2-.1-.5-.2-.8-.4-.3-.1-.6-.3-1-.4-.4-.1-.8-.2-1.3-.2-.8 0-1.4.2-1.8.5-.4.3-.7.8-.7 1.3 0 .3.1.6.3.9.2.2.5.4.9.6.4.2.8.3 1.3.5.5.1 1 .3 1.5.5l1.5.6c.5.2.9.5 1.3.8.4.3.7.7.9 1.2.2.5.3 1 .3 1.7 0 .8-.1 1.5-.4 2.2-.3.7-.7 1.2-1.3 1.7-.6.5-1.2.9-2 1.1-.8.3-1.7.4-2.8.4-.6 0-1.1 0-1.6-.2s-1-.2-1.5-.4-.9-.4-1.4-.6c-.4-.2-.8-.5-1.1-.8l.9-1.5c.1-.2.3-.3.4-.4s.4-.1.6-.1c.2 0 .5.1.7.2.2.1.5.3.8.4s.6.3 1 .4c.4.1.9.2 1.5.2.5 0 .9-.1 1.2-.2.3-.1.6-.3.8-.4.2-.2.4-.4.5-.6.1-.2.2-.5.2-.7 0-.4-.1-.7-.3-.9-.2-.2-.5-.5-.9-.6-.4-.2-.8-.3-1.3-.5-.5-.1-1-.3-1.5-.5l-1.5-.6c-.5-.2-.9-.5-1.3-.9s-.7-.8-.9-1.3-.3-1.1-.3-1.8.1-1.3.4-1.9c.3-.6.7-1.1 1.2-1.6s1.2-.8 1.9-1.1c.8-.3 1.7-.4 2.7-.4 1.1 0 2.1.2 3.1.6s1.7.9 2.3 1.5l-1.2 1.4zM66.4 43.8c1 0 2 .2 2.8.5.9.3 1.6.8 2.2 1.4.6.6 1.1 1.4 1.5 2.3s.5 2 .5 3.1v.7s-.1.3-.1.5c-.1.1-.2.2-.3.2-.1 0-.3.1-.4.1H62.5c.1 1.7.6 2.9 1.4 3.7.8.8 1.8 1.2 3.1 1.2.6 0 1.2-.1 1.6-.2.5-.1.9-.3 1.2-.5.3-.2.6-.3.9-.5.3-.1.5-.2.8-.2.2 0 .3 0 .4.1l.3.3 1.1 1.4c-.4.5-.9.9-1.5 1.3-.5.3-1.1.6-1.7.8-.6.2-1.2.4-1.8.4-.6.1-1.2.1-1.8.1-1.1 0-2.2-.2-3.2-.6-1-.4-1.8-.9-2.5-1.7s-1.3-1.6-1.7-2.7c-.4-1.1-.6-2.3-.6-3.8 0-1.1.2-2.2.5-3.1s.9-1.8 1.5-2.6 1.5-1.3 2.5-1.7c1.1-.3 2.2-.5 3.4-.5zm.1 2.8c-1.1 0-2 .3-2.7 1s-1.1 1.6-1.2 2.8H70c0-.5-.1-1-.2-1.4s-.3-.8-.6-1.2-.6-.6-1.1-.8-1-.4-1.6-.4zM81.3 52.3v8.1H77v-23h7.5c1.5 0 2.9.2 4 .5 1.1.4 2.1.9 2.8 1.5.7.6 1.3 1.4 1.6 2.3.3.9.5 1.9.5 3s-.2 2.1-.6 3.1-.9 1.7-1.7 2.4-1.7 1.2-2.8 1.6c-1.1.4-2.4.6-3.9.6h-3.1zm0-3.3h3.2c.8 0 1.5-.1 2.1-.3.6-.2 1.1-.5 1.4-.8.4-.4.7-.8.9-1.3s.3-1.1.3-1.8c0-.6-.1-1.2-.3-1.7s-.5-.9-.9-1.3-.9-.6-1.4-.8c-.6-.2-1.3-.3-2.1-.3h-3.2V49zM108.5 60.4h-1.8c-.4 0-.7-.1-.9-.2s-.4-.3-.5-.7l-.3-1.2c-.4.4-.8.7-1.2 1-.4.3-.8.5-1.2.7-.4.2-.9.3-1.4.4-.5.1-1 .1-1.6.1-.7 0-1.3-.1-1.9-.3-.6-.2-1.1-.5-1.5-.8-.4-.4-.7-.8-1-1.4-.2-.6-.3-1.2-.3-1.9 0-.6.2-1.2.5-1.8s.9-1.1 1.6-1.6c.8-.5 1.8-.9 3-1.2 1.3-.3 2.8-.5 4.7-.5v-1c0-1.1-.2-1.9-.7-2.4s-1.1-.8-2-.8c-.6 0-1.2.1-1.6.2-.4.1-.8.3-1.1.5s-.6.4-.9.5c-.3.1-.6.2-.9.2-.3 0-.5-.1-.7-.2-.2-.1-.3-.3-.5-.5l-.7-1.3c1.9-1.7 4.1-2.6 6.8-2.6 1 0 1.8.2 2.6.5s1.4.7 1.9 1.3c.5.6.9 1.2 1.2 2s.4 1.6.4 2.5v10.5zm-7.6-2.5c.4 0 .8 0 1.1-.1.3-.1.7-.2 1-.3.3-.1.6-.3.9-.5.3-.2.6-.5.9-.8v-2.7c-1.1 0-2.1.1-2.9.2-.8.1-1.4.3-1.9.6-.5.2-.8.5-1 .8-.2.3-.3.6-.3 1 0 .7.2 1.2.6 1.5s.9.3 1.6.3zM122.1 47.3c-.1.2-.2.3-.3.4-.1.1-.3.1-.4.1-.2 0-.4-.1-.6-.2-.2-.1-.5-.2-.8-.4-.3-.1-.6-.3-1-.4-.4-.1-.8-.2-1.3-.2-.8 0-1.4.2-1.8.5-.4.3-.7.8-.7 1.3 0 .3.1.6.3.9.2.2.5.4.9.6.4.2.8.3 1.3.5.5.1 1 .3 1.5.5l1.5.6c.5.2.9.5 1.3.8.4.3.7.7.9 1.2.2.5.3 1 .3 1.7 0 .8-.1 1.5-.4 2.2-.3.7-.7 1.2-1.3 1.7-.6.5-1.2.9-2 1.1-.8.3-1.7.4-2.8.4-.6 0-1.1 0-1.6-.2s-1-.2-1.5-.4-.9-.4-1.4-.6c-.4-.2-.8-.5-1.1-.8l.9-1.5c.1-.2.3-.3.4-.4s.4-.1.6-.1c.2 0 .5.1.7.2.2.1.5.3.8.4s.6.3 1 .4c.4.1.9.2 1.5.2.5 0 .9-.1 1.2-.2.3-.1.6-.3.8-.4.2-.2.4-.4.5-.6.1-.2.2-.5.2-.7 0-.4-.1-.7-.3-.9-.2-.2-.5-.5-.9-.6-.4-.2-.8-.3-1.3-.5-.5-.1-1-.3-1.5-.5l-1.5-.6c-.5-.2-.9-.5-1.3-.9s-.7-.8-.9-1.3-.3-1.1-.3-1.8.1-1.3.4-1.9c.3-.6.7-1.1 1.2-1.6s1.2-.8 1.9-1.1c.8-.3 1.7-.4 2.7-.4 1.1 0 2.1.2 3.1.6s1.7.9 2.3 1.5l-1.2 1.4zM136 47.3c-.1.2-.2.3-.3.4-.1.1-.3.1-.4.1-.2 0-.4-.1-.6-.2-.2-.1-.5-.2-.8-.4-.3-.1-.6-.3-1-.4-.4-.1-.8-.2-1.3-.2-.8 0-1.4.2-1.8.5-.4.3-.7.8-.7 1.3 0 .3.1.6.3.9.2.2.5.4.9.6.4.2.8.3 1.3.5.5.1 1 .3 1.5.5l1.5.6c.5.2.9.5 1.3.8.4.3.7.7.9 1.2.2.5.3 1 .3 1.7 0 .8-.1 1.5-.4 2.2-.3.7-.7 1.2-1.3 1.7-.6.5-1.2.9-2 1.1-.8.3-1.7.4-2.8.4-.6 0-1.1 0-1.6-.2s-1-.2-1.5-.4-.9-.4-1.4-.6c-.4-.2-.8-.5-1.1-.8l.9-1.5c.1-.2.3-.3.4-.4s.4-.1.6-.1c.2 0 .5.1.7.2.2.1.5.3.8.4s.6.3 1 .4c.4.1.9.2 1.5.2.5 0 .9-.1 1.2-.2.3-.1.6-.3.8-.4.2-.2.4-.4.5-.6.1-.2.2-.5.2-.7 0-.4-.1-.7-.3-.9-.2-.2-.5-.5-.9-.6-.4-.2-.8-.3-1.3-.5-.5-.1-1-.3-1.5-.5l-1.5-.6c-.5-.2-.9-.5-1.3-.9s-.7-.8-.9-1.3-.3-1.1-.3-1.8.1-1.3.4-1.9c.3-.6.7-1.1 1.2-1.6s1.2-.8 1.9-1.1c.8-.3 1.7-.4 2.7-.4 1.1 0 2.1.2 3.1.6s1.7.9 2.3 1.5l-1.2 1.4z"/></svg>